<svg width="413" height="465" viewBox="0 0 413 465" fill="none" xmlns="http://www.w3.org/2000/svg">
<path d="M190.983 8.71134C200.273 3.32243 211.734 3.3104 221.035 8.6798L397.999 110.84C407.282 116.199 413 126.103 413 136.821V327.679C413 338.397 407.282 348.301 397.999 353.66L221.035 455.82C211.734 461.19 200.273 461.178 190.983 455.789L14.9466 353.67C5.69465 348.303 0 338.417 0 327.721V136.779C0 126.083 5.69466 116.197 14.9466 110.83L190.983 8.71134Z" fill="#383838"/>
<path d="M205.754 20.5C199.578 20.5 193.401 21.884 188.617 24.652L35.864 113.012C26.294 118.548 26.294 127.302 35.864 132.838L188.617 221.198C198.187 226.734 213.32 226.734 222.889 221.198L375.642 132.838C385.212 127.303 385.212 118.548 375.642 113.013L222.889 24.653C218.104 21.883 211.929 20.5 205.754 20.5V20.5ZM206.68 103.355C212.958 103.41 219.07 104.561 224.252 106.665C229.434 108.769 233.457 111.733 235.817 115.185C238.178 118.637 238.772 122.426 237.525 126.078C236.278 129.729 233.246 133.082 228.807 135.717C225.849 137.501 222.325 138.919 218.438 139.891C214.551 140.862 210.379 141.368 206.161 141.378C201.943 141.388 197.764 140.902 193.864 139.949C189.965 138.996 186.421 137.595 183.439 135.825C180.457 134.055 178.094 131.953 176.488 129.639C174.882 127.325 174.063 124.845 174.08 122.343C174.097 119.84 174.948 117.364 176.585 115.058C178.223 112.752 180.613 110.66 183.619 108.905C186.642 107.112 190.24 105.697 194.201 104.743C198.162 103.79 202.405 103.318 206.679 103.355H206.68ZM25.664 149.576C19.911 149.421 16 153.912 16 161.856V319.552C16 330.604 23.57 343.715 33.14 349.242L180.07 434.09C189.64 439.616 197.21 435.246 197.21 424.195V266.496C197.21 255.444 189.64 242.336 180.07 236.808L33.14 151.961C30.45 150.406 27.915 149.634 25.664 149.574V149.576ZM386.437 149.578C384.187 149.638 381.654 150.408 378.963 151.963L232.028 236.81C222.458 242.337 214.888 255.448 214.888 266.5V424.2C214.888 435.25 222.458 439.618 232.028 434.09L378.964 349.246C388.534 343.719 396.101 330.61 396.101 319.558V161.858C396.101 153.916 392.191 149.426 386.437 149.58V149.578ZM39.291 171.506C42.7137 171.269 46.6016 172.343 50.5619 174.62C54.5221 176.897 58.4144 180.296 61.8455 184.475C65.2765 188.653 68.1248 193.462 70.1025 198.416C72.0802 203.37 73.1173 208.294 73.109 212.689C73.1125 215.977 72.533 218.896 71.4038 221.281C70.2746 223.665 68.6178 225.468 66.5281 226.586C64.4384 227.705 61.9568 228.116 59.2253 227.797C56.4937 227.478 53.5657 226.436 50.6087 224.728C47.6517 223.021 44.7237 220.683 41.9921 217.848C39.2606 215.013 36.779 211.736 34.6894 208.205C32.5998 204.674 30.943 200.958 29.8139 197.269C28.6848 193.581 28.1054 189.992 28.109 186.709C28.1008 182.322 29.1296 178.608 31.0922 175.94C33.0547 173.271 35.8822 171.742 39.291 171.506ZM260.811 236.17C264.22 236.406 267.048 237.935 269.011 240.603C270.973 243.272 272.002 246.986 271.994 251.373C271.987 258.002 269.613 265.724 265.395 272.841C261.176 279.959 255.457 285.891 249.494 289.333C243.532 292.775 237.813 293.447 233.594 291.201C229.375 288.955 227.001 283.974 226.994 277.353C226.986 272.958 228.023 268.034 230 263.08C231.978 258.126 234.826 253.317 238.258 249.139C241.689 244.96 245.581 241.561 249.541 239.284C253.501 237.007 257.389 235.933 260.812 236.17H260.811ZM95.29 264.836C98.7128 264.599 102.601 265.673 106.561 267.95C110.521 270.227 114.413 273.626 117.844 277.805C121.276 281.983 124.124 286.792 126.102 291.746C128.079 296.7 129.116 301.624 129.108 306.019C129.101 312.64 126.727 317.621 122.508 319.867C118.289 322.113 112.57 321.441 106.608 317.999C100.645 314.557 94.926 308.625 90.7073 301.507C86.4886 294.39 84.115 286.668 84.108 280.039C84.0998 275.652 85.1286 271.938 87.0912 269.27C89.0537 266.601 91.8812 265.072 95.29 264.836V264.836ZM372.813 294.216C376.222 294.453 379.049 295.982 381.011 298.65C382.974 301.319 384.002 305.033 383.994 309.42C383.987 316.049 381.613 323.771 377.395 330.888C373.176 338.006 367.457 343.938 361.494 347.38C355.532 350.822 349.813 351.494 345.594 349.248C341.375 347.002 339.001 342.021 338.994 335.4C338.986 331.005 340.022 326.081 342 321.127C343.978 316.173 346.826 311.363 350.257 307.185C353.688 303.007 357.581 299.607 361.541 297.33C365.501 295.053 369.389 293.979 372.812 294.216H372.813ZM151.293 358.879C154.716 358.642 158.604 359.716 162.564 361.993C166.524 364.271 170.416 367.67 173.847 371.848C177.278 376.026 180.126 380.835 182.104 385.789C184.081 390.743 185.118 395.667 185.11 400.062C185.113 403.35 184.534 406.269 183.405 408.654C182.276 411.038 180.619 412.841 178.529 413.959C176.439 415.078 173.958 415.489 171.226 415.17C168.495 414.851 165.567 413.809 162.61 412.101C159.653 410.394 156.725 408.056 153.993 405.221C151.262 402.386 148.78 399.109 146.69 395.578C144.601 392.047 142.944 388.331 141.815 384.642C140.686 380.954 140.106 377.365 140.11 374.082C140.102 369.695 141.131 365.981 143.093 363.313C145.056 360.644 147.883 359.115 151.292 358.879H151.293Z" fill="white"/>
<path d="M16 319.313V159.297C16 151.604 24.323 146.792 30.9897 150.63L179.964 236.403C190.813 242.65 197.5 254.216 197.5 266.735V427.162C197.5 434.864 189.159 439.675 182.492 435.818L33.4736 349.609C22.6594 343.353 16 331.806 16 319.313Z" fill="black" fill-opacity="0.41"/>
<path d="M396.5 319.306V158.831C396.5 151.131 388.162 146.32 381.495 150.174L231.483 236.893C220.664 243.148 214 254.697 214 267.194V427.669C214 435.369 222.338 440.18 229.005 436.326L379.017 349.607C389.836 343.352 396.5 331.803 396.5 319.306Z" fill="black" fill-opacity="0.41"/>
</svg>
