<svg width="2469" height="3115" viewBox="0 0 2469 3115" fill="none" xmlns="http://www.w3.org/2000/svg">
<path fill-rule="evenodd" clip-rule="evenodd" d="M366.944 1635.43V1060.23H1373.06V1635.43C1373.06 1818.5 1147.83 1966.9 870.001 1966.9C592.17 1966.9 366.944 1818.5 366.944 1635.43Z" fill="#8D5442"/>
<path d="M366.944 1060.23V1050.23C361.421 1050.23 356.944 1054.7 356.944 1060.23H366.944ZM1373.06 1060.23H1383.06C1383.06 1054.7 1378.58 1050.23 1373.06 1050.23V1060.23ZM356.944 1060.23V1635.43H376.944V1060.23H356.944ZM1373.06 1050.23H366.944V1070.23H1373.06V1050.23ZM1383.06 1635.43V1060.23H1363.06V1635.43H1383.06ZM1363.06 1635.43C1363.06 1722.52 1309.48 1802.65 1220.21 1861.46C1131.03 1920.23 1007.24 1956.9 870.001 1956.9V1976.9C1010.59 1976.9 1138.33 1939.37 1231.22 1878.16C1324.02 1817.01 1383.06 1731.4 1383.06 1635.43H1363.06ZM870.001 1956.9C732.761 1956.9 608.971 1920.23 519.788 1861.46C430.524 1802.65 376.944 1722.52 376.944 1635.43H356.944C356.944 1731.4 415.976 1817.01 508.783 1878.16C601.671 1939.37 729.41 1976.9 870.001 1976.9V1956.9Z" fill="#373737"/>
<path d="M1371.96 1066.03C1371.96 1153.03 1317.52 1233.14 1226.71 1291.99C1135.99 1350.77 1010.08 1387.45 870.478 1387.45C730.88 1387.45 604.961 1350.77 514.246 1291.99C423.434 1233.14 369 1153.03 369 1066.03C369 979.027 423.434 898.914 514.246 840.069C604.961 781.289 730.88 744.605 870.478 744.605C1010.08 744.605 1135.99 781.289 1226.71 840.069C1317.52 898.914 1371.96 979.027 1371.96 1066.03Z" fill="#AB7462" stroke="#373737" stroke-width="20"/>
<path d="M375.77 1447.76C437.823 1759.22 1296.59 1752.95 1363.42 1447.76" stroke="#373737" stroke-width="20" stroke-linecap="round"/>
<path d="M402.248 1249.17V1415.55C414.311 1461 459.707 1557.65 544.791 1580.6V1374.5C517.283 1369.21 456.265 1346.26 432.257 1296.83V1415.55C450.645 1453.06 493.158 1524.28 516.106 1509.1V1415.55C501.249 1410.4 470.298 1397.54 465.356 1387.3C460.413 1377.06 463.296 1401.87 465.356 1415.55C469.622 1427.17 480.713 1450.76 490.952 1452.17" stroke="#373737" stroke-width="20" stroke-linecap="round"/>
<path d="M1340.91 1232.4V1398.78C1328.85 1444.23 1283.46 1540.88 1198.37 1563.83V1357.73C1225.88 1352.44 1286.9 1329.49 1310.9 1280.06V1398.78C1292.52 1436.29 1250 1507.51 1227.06 1492.33V1398.78C1241.91 1393.63 1272.86 1380.77 1277.81 1370.53C1282.75 1360.29 1279.87 1385.1 1277.81 1398.78C1273.54 1410.4 1262.45 1433.99 1252.21 1435.4" stroke="#373737" stroke-width="20" stroke-linecap="round"/>
<path d="M594.659 1397.45V1590.75C627.316 1609.28 731.377 1651.12 847.53 1638.41V1453.06C806.929 1453.94 709.841 1448.47 646.292 1419.52V1558.97C668.211 1573.53 730.406 1600.28 803.84 1590.75V1502.93C781.774 1506.31 730.141 1507.07 700.132 1483.07V1536.91C710.871 1544.85 739.497 1558.35 768.094 1548.82" stroke="#373737" stroke-width="20" stroke-linecap="round"/>
<path d="M1149.39 1392.16V1585.45C1116.73 1603.99 1012.67 1645.82 896.515 1633.11V1447.76C937.115 1448.64 1034.2 1443.17 1097.75 1414.22V1553.68C1075.83 1568.24 1013.64 1594.98 940.205 1585.45V1497.63C962.27 1501.01 1013.9 1501.78 1043.91 1477.77V1531.61C1033.17 1539.55 1004.55 1553.06 975.951 1543.53" stroke="#373737" stroke-width="20" stroke-linecap="round"/>
<path d="M900.928 1679.01L1132.17 1902.31" stroke="#373737" stroke-width="20" stroke-linecap="round"/>
<path d="M1042.15 1668.42L1132.17 1754.91" stroke="#373737" stroke-width="20" stroke-linecap="round"/>
<path d="M375.77 1563.38L524.05 1697.54" stroke="#373737" stroke-width="20" stroke-linecap="round"/>
<path d="M1312.23 1568.68L1363.42 1619.87" stroke="#373737" stroke-width="20" stroke-linecap="round"/>
<path d="M1197.49 1635.76L1312.23 1746.97" stroke="#373737" stroke-width="20" stroke-linecap="round"/>
<path d="M829.436 1763.3L1013.02 1942.91" stroke="#373737" stroke-width="20" stroke-linecap="round"/>
<path d="M532.876 1859.94L550.528 1876.71" stroke="#373737" stroke-width="20" stroke-linecap="round"/>
<path d="M614.077 1790.22L778.244 1950.85" stroke="#373737" stroke-width="20" stroke-linecap="round"/>
<path d="M892.102 1689.6L726.169 1844.94" stroke="#373737" stroke-width="20" stroke-linecap="round"/>
<path d="M594.659 1651.65L440.201 1790.22" stroke="#373737" stroke-width="20" stroke-linecap="round"/>
<path d="M1223.08 1697.54L1076.57 1829.94" stroke="#373737" stroke-width="20" stroke-linecap="round"/>
<path d="M1318.41 1762.86L1207.2 1870.54" stroke="#373737" stroke-width="20" stroke-linecap="round"/>
<path d="M734.996 1685.19L532.876 1859.94" stroke="#373737" stroke-width="20" stroke-linecap="round"/>
<path d="M896.515 1852.88L791.042 1951.3" stroke="#373737" stroke-width="20" stroke-linecap="round"/>
<path d="M440.201 1630.46L381.065 1679.01" stroke="#373737" stroke-width="20" stroke-linecap="round"/>
<path fill-rule="evenodd" clip-rule="evenodd" d="M1451.99 1651.06V1075.86H2458.1V1651.06C2458.1 1834.12 2232.88 1982.53 1955.05 1982.53C1677.21 1982.53 1451.99 1834.12 1451.99 1651.06Z" fill="#8D5442"/>
<path d="M1451.99 1075.86V1065.86C1446.47 1065.86 1441.99 1070.33 1441.99 1075.86H1451.99ZM2458.1 1075.86H2468.1C2468.1 1070.33 2463.62 1065.86 2458.1 1065.86V1075.86ZM1441.99 1075.86V1651.06H1461.99V1075.86H1441.99ZM2458.1 1065.86H1451.99V1085.86H2458.1V1065.86ZM2468.1 1651.06V1075.86H2448.1V1651.06H2468.1ZM2448.1 1651.06C2448.1 1738.15 2394.52 1818.28 2305.26 1877.09C2216.08 1935.86 2092.28 1972.53 1955.05 1972.53V1992.53C2095.64 1992.53 2223.37 1955 2316.26 1893.79C2409.07 1832.64 2468.1 1747.03 2468.1 1651.06H2448.1ZM1955.05 1972.53C1817.81 1972.53 1694.02 1935.86 1604.83 1877.09C1515.57 1818.28 1461.99 1738.15 1461.99 1651.06H1441.99C1441.99 1747.03 1501.02 1832.64 1593.83 1893.79C1686.72 1955 1814.45 1992.53 1955.05 1992.53V1972.53Z" fill="#373737"/>
<path d="M2457 1081.66C2457 1168.66 2402.57 1248.77 2311.75 1307.62C2221.04 1366.4 2095.12 1403.08 1955.52 1403.08C1815.92 1403.08 1690.01 1366.4 1599.29 1307.62C1508.48 1248.77 1454.04 1168.66 1454.04 1081.66C1454.04 994.657 1508.48 914.543 1599.29 855.699C1690.01 796.919 1815.92 760.235 1955.52 760.235C2095.12 760.235 2221.04 796.919 2311.75 855.699C2402.57 914.543 2457 994.657 2457 1081.66Z" fill="#AB7462" stroke="#373737" stroke-width="20"/>
<path d="M1460.81 1463.39C1522.87 1774.85 2381.64 1768.58 2448.46 1463.39" stroke="#373737" stroke-width="20" stroke-linecap="round"/>
<path d="M1487.29 1264.8V1431.18C1499.36 1476.63 1544.75 1573.28 1629.84 1596.23V1390.13C1602.33 1384.84 1541.31 1361.89 1517.3 1312.46V1431.18C1535.69 1468.69 1578.2 1539.91 1601.15 1524.73V1431.18C1586.29 1426.03 1555.34 1413.17 1550.4 1402.93C1545.46 1392.69 1548.34 1417.5 1550.4 1431.18C1554.67 1442.8 1565.76 1466.39 1576 1467.8" stroke="#373737" stroke-width="20" stroke-linecap="round"/>
<path d="M2425.96 1248.03V1414.41C2413.9 1459.86 2368.5 1556.51 2283.42 1579.46V1373.36C2310.92 1368.07 2371.94 1345.12 2395.95 1295.69V1414.41C2377.56 1451.92 2335.05 1523.14 2312.1 1507.96V1414.41C2326.96 1409.26 2357.91 1396.4 2362.85 1386.16C2367.79 1375.92 2364.91 1400.73 2362.85 1414.41C2358.59 1426.03 2347.49 1449.62 2337.26 1451.03" stroke="#373737" stroke-width="20" stroke-linecap="round"/>
<path d="M1679.7 1413.08V1606.38C1712.36 1624.91 1816.42 1666.75 1932.57 1654.04V1468.69C1891.97 1469.57 1794.89 1464.1 1731.34 1435.15V1574.6C1753.26 1589.16 1815.45 1615.91 1888.88 1606.38V1518.56C1866.82 1521.94 1815.19 1522.7 1785.18 1498.7V1552.54C1795.92 1560.48 1824.54 1573.98 1853.14 1564.45" stroke="#373737" stroke-width="20" stroke-linecap="round"/>
<path d="M2234.43 1407.79V1601.08C2201.77 1619.62 2097.71 1661.45 1981.56 1648.74V1463.39C2022.16 1464.27 2119.25 1458.8 2182.8 1429.85V1569.31C2160.88 1583.87 2098.68 1610.61 2025.25 1601.08V1513.26C2047.31 1516.64 2098.95 1517.41 2128.96 1493.4V1547.24C2118.22 1555.18 2089.59 1568.69 2061 1559.16" stroke="#373737" stroke-width="20" stroke-linecap="round"/>
<path d="M1985.97 1694.64L2217.22 1917.94" stroke="#373737" stroke-width="20" stroke-linecap="round"/>
<path d="M2127.19 1684.05L2217.22 1770.54" stroke="#373737" stroke-width="20" stroke-linecap="round"/>
<path d="M1460.81 1579.01L1609.09 1713.17" stroke="#373737" stroke-width="20" stroke-linecap="round"/>
<path d="M2397.27 1584.31L2448.46 1635.5" stroke="#373737" stroke-width="20" stroke-linecap="round"/>
<path d="M2282.53 1651.39L2397.27 1762.6" stroke="#373737" stroke-width="20" stroke-linecap="round"/>
<path d="M1914.48 1778.93L2098.07 1958.54" stroke="#373737" stroke-width="20" stroke-linecap="round"/>
<path d="M1617.92 1875.57L1635.57 1892.34" stroke="#373737" stroke-width="20" stroke-linecap="round"/>
<path d="M1699.12 1805.85L1863.29 1966.48" stroke="#373737" stroke-width="20" stroke-linecap="round"/>
<path d="M1977.15 1705.23L1811.21 1860.57" stroke="#373737" stroke-width="20" stroke-linecap="round"/>
<path d="M1679.7 1667.28L1525.25 1805.85" stroke="#373737" stroke-width="20" stroke-linecap="round"/>
<path d="M2308.13 1713.17L2161.61 1845.57" stroke="#373737" stroke-width="20" stroke-linecap="round"/>
<path d="M2403.45 1778.49L2292.24 1886.17" stroke="#373737" stroke-width="20" stroke-linecap="round"/>
<path d="M1820.04 1700.82L1617.92 1875.57" stroke="#373737" stroke-width="20" stroke-linecap="round"/>
<path d="M1981.56 1868.51L1876.09 1966.93" stroke="#373737" stroke-width="20" stroke-linecap="round"/>
<path d="M1525.25 1646.09L1466.11 1694.64" stroke="#373737" stroke-width="20" stroke-linecap="round"/>
<path fill-rule="evenodd" clip-rule="evenodd" d="M948.541 900.659V325.622H1954.65V900.823C1954.65 1083.89 1729.43 1232.29 1451.6 1232.29C1173.77 1232.29 948.541 1083.89 948.541 900.823C948.541 900.768 948.541 900.713 948.541 900.659Z" fill="#8D5442"/>
<path d="M948.541 325.622V315.622C943.018 315.622 938.541 320.099 938.541 325.622H948.541ZM948.541 900.659L958.541 900.666V900.659H948.541ZM1954.65 325.622H1964.65C1964.65 320.099 1960.18 315.622 1954.65 315.622V325.622ZM1954.65 900.823L1964.65 900.823V900.823H1954.65ZM948.541 900.823L958.541 900.823V900.823H948.541ZM938.541 325.622V900.659H958.541V325.622H938.541ZM1954.65 315.622H948.541V335.622H1954.65V315.622ZM1964.65 900.823V325.622H1944.65V900.823H1964.65ZM1944.65 900.823C1944.65 987.917 1891.07 1068.04 1801.81 1126.86C1712.63 1185.62 1588.84 1222.29 1451.6 1222.29V1242.29C1592.19 1242.29 1719.93 1204.76 1812.81 1143.56C1905.62 1082.41 1964.65 996.795 1964.65 900.823L1944.65 900.823ZM1451.6 1222.29C1314.36 1222.29 1190.57 1185.62 1101.38 1126.86C1012.12 1068.04 958.541 987.917 958.541 900.823L938.541 900.823C938.541 996.795 997.574 1082.41 1090.38 1143.56C1183.27 1204.76 1311.01 1242.29 1451.6 1242.29V1222.29ZM958.541 900.823C958.541 900.758 958.541 900.716 958.541 900.666L938.541 900.651C938.541 900.71 938.541 900.779 938.541 900.823H958.541Z" fill="#373737"/>
<path d="M1953.55 331.423C1953.55 418.425 1899.12 498.539 1808.31 557.383C1717.59 616.164 1591.67 652.847 1452.07 652.847C1312.48 652.847 1186.56 616.164 1095.84 557.383C1005.03 498.539 950.597 418.425 950.597 331.423C950.597 244.422 1005.03 164.308 1095.84 105.464C1186.56 46.6833 1312.48 10 1452.07 10C1591.67 10 1717.59 46.6833 1808.31 105.464C1899.12 164.308 1953.55 244.422 1953.55 331.423Z" fill="#AB7462" stroke="#373737" stroke-width="20"/>
<path d="M957.367 713.156C1019.42 1024.61 1878.19 1018.34 1945.02 713.156" stroke="#373737" stroke-width="20" stroke-linecap="round"/>
<path d="M983.845 514.567V680.94C995.908 726.395 1041.3 823.042 1126.39 845.99V639.899C1098.88 634.603 1037.86 611.655 1013.85 562.228V680.94C1032.24 718.452 1074.76 789.679 1097.7 774.498V680.94C1082.85 675.792 1051.9 662.935 1046.95 652.697C1042.01 642.458 1044.89 667.26 1046.95 680.94C1051.22 692.562 1062.31 716.157 1072.55 717.569" stroke="#373737" stroke-width="20" stroke-linecap="round"/>
<path d="M1922.51 497.797V664.171C1910.45 709.626 1865.05 806.272 1779.97 829.221V623.129C1807.48 617.833 1868.49 594.885 1892.5 545.459V664.171C1874.11 701.682 1831.6 772.909 1808.65 757.728V664.171C1823.51 659.022 1854.46 646.165 1859.4 635.927C1864.35 625.689 1861.46 650.49 1859.4 664.171C1855.14 675.792 1844.05 699.387 1833.81 700.799" stroke="#373737" stroke-width="20" stroke-linecap="round"/>
<path d="M1176.26 662.847V856.14C1208.91 874.675 1312.97 916.512 1429.13 903.802V718.452C1388.53 719.335 1291.44 713.862 1227.89 684.912V824.366C1249.81 838.929 1312 865.673 1385.44 856.14V768.32C1363.37 771.703 1311.74 772.468 1281.73 748.461V802.301C1292.47 810.244 1321.09 823.748 1349.69 814.216" stroke="#373737" stroke-width="20" stroke-linecap="round"/>
<path d="M1730.98 657.551V850.845C1698.33 869.38 1594.26 911.216 1478.11 898.506V713.156C1518.71 714.039 1615.8 708.567 1679.35 679.617V819.071C1657.43 833.634 1595.24 860.377 1521.8 850.845V763.024C1543.87 766.408 1595.5 767.173 1625.51 743.165V797.005C1614.77 804.949 1586.14 818.453 1557.55 808.92" stroke="#373737" stroke-width="20" stroke-linecap="round"/>
<path d="M1482.53 944.402L1713.77 1167.7" stroke="#373737" stroke-width="20" stroke-linecap="round"/>
<path d="M1623.74 933.811L1713.77 1020.31" stroke="#373737" stroke-width="20" stroke-linecap="round"/>
<path d="M957.367 828.779L1105.65 962.937" stroke="#373737" stroke-width="20" stroke-linecap="round"/>
<path d="M1893.83 834.075L1945.02 885.267" stroke="#373737" stroke-width="20" stroke-linecap="round"/>
<path d="M1779.09 901.154L1893.83 1012.36" stroke="#373737" stroke-width="20" stroke-linecap="round"/>
<path d="M1411.03 1028.69L1594.62 1208.31" stroke="#373737" stroke-width="20" stroke-linecap="round"/>
<path d="M1114.47 1125.34L1132.13 1142.11" stroke="#373737" stroke-width="20" stroke-linecap="round"/>
<path d="M1195.67 1055.61L1359.84 1216.25" stroke="#373737" stroke-width="20" stroke-linecap="round"/>
<path d="M1473.7 954.994L1307.77 1110.33" stroke="#373737" stroke-width="20" stroke-linecap="round"/>
<path d="M1176.26 917.041L1021.8 1055.61" stroke="#373737" stroke-width="20" stroke-linecap="round"/>
<path d="M1804.68 962.937L1658.17 1095.33" stroke="#373737" stroke-width="20" stroke-linecap="round"/>
<path d="M1900 1028.25L1788.79 1135.93" stroke="#373737" stroke-width="20" stroke-linecap="round"/>
<path d="M1316.59 950.581L1114.47 1125.34" stroke="#373737" stroke-width="20" stroke-linecap="round"/>
<path d="M1478.11 1118.28L1372.64 1216.69" stroke="#373737" stroke-width="20" stroke-linecap="round"/>
<path d="M1021.8 895.858L962.663 944.402" stroke="#373737" stroke-width="20" stroke-linecap="round"/>
<path d="M1751.59 1886.71C1760.88 1881.32 1772.34 1881.31 1781.65 1886.68L1913 1962.51C1922.28 1967.87 1928 1977.77 1928 1988.49V2134.45C1928 2145.11 1922.34 2154.97 1913.14 2160.35L1781.79 2237.13C1772.41 2242.61 1760.81 2242.6 1751.45 2237.1L1620.81 2160.36C1611.63 2154.97 1606 2145.13 1606 2134.49V1988.45C1606 1977.75 1611.69 1967.87 1620.95 1962.5L1751.59 1886.71Z" fill="#383838"/>
<path d="M1766.42 1896.71C1761.6 1896.71 1756.79 1897.79 1753.06 1899.95L1633.96 1968.84C1626.5 1973.16 1626.5 1979.98 1633.96 1984.3L1753.06 2053.19C1760.52 2057.5 1772.32 2057.5 1779.78 2053.19L1898.87 1984.3C1906.33 1979.98 1906.33 1973.16 1898.87 1968.84L1779.78 1899.95C1776.05 1897.79 1771.23 1896.71 1766.42 1896.71V1896.71ZM1767.87 1906.4C1774.09 1906.56 1779.99 1908.1 1784.39 1910.71C1788.99 1913.49 1791.56 1917.24 1791.53 1921.14C1791.5 1925.03 1788.87 1928.77 1784.23 1931.52C1779.59 1934.28 1773.3 1935.83 1766.73 1935.85C1760.16 1935.87 1753.85 1934.35 1749.16 1931.62C1745.61 1929.51 1743.22 1926.82 1742.29 1923.89C1741.37 1920.96 1741.96 1917.94 1743.98 1915.21C1746 1912.49 1749.36 1910.19 1753.63 1908.61C1757.89 1907.04 1762.85 1906.27 1767.87 1906.4L1767.87 1906.4ZM1674.95 1961.12C1674.95 1961.12 1674.96 1961.12 1674.96 1961.12C1681.18 1961.28 1687.08 1962.82 1691.48 1965.44C1696.15 1968.21 1698.78 1971.97 1698.78 1975.89C1698.78 1979.81 1696.15 1983.57 1691.48 1986.34C1686.81 1989.11 1680.47 1990.67 1673.86 1990.67C1667.26 1990.67 1660.92 1989.11 1656.25 1986.34C1652.7 1984.23 1650.3 1981.54 1649.38 1978.61C1648.45 1975.69 1649.04 1972.66 1651.06 1969.93C1653.08 1967.21 1656.45 1964.91 1660.71 1963.33C1664.97 1961.76 1669.94 1960.99 1674.95 1961.12H1674.95ZM1860.44 1961.32C1860.44 1961.32 1860.44 1961.32 1860.44 1961.32C1866.66 1961.49 1872.56 1963.02 1876.96 1965.64C1881.6 1968.42 1884.2 1972.17 1884.18 1976.08C1884.17 1979.99 1881.54 1983.73 1876.89 1986.5C1872.23 1989.26 1865.91 1990.82 1859.32 1990.83C1852.74 1990.84 1846.41 1989.3 1841.73 1986.54C1838.18 1984.44 1835.79 1981.74 1834.86 1978.82C1833.94 1975.89 1834.53 1972.86 1836.55 1970.14C1838.57 1967.41 1841.93 1965.11 1846.2 1963.54C1850.46 1961.96 1855.42 1961.19 1860.44 1961.32ZM1626.01 1997.35C1621.52 1997.23 1618.47 2000.73 1618.47 2006.92V2129.87C1618.47 2138.49 1624.38 2148.71 1631.84 2153.02L1746.39 2219.17C1753.86 2223.48 1759.76 2220.07 1759.76 2211.46V2088.51C1759.76 2079.89 1753.86 2069.67 1746.39 2065.36L1631.84 1999.21C1629.74 1997.99 1627.76 1997.39 1626.01 1997.35V1997.35ZM1907.29 1997.35C1905.54 1997.4 1903.56 1998 1901.46 1999.21L1786.9 2065.36C1779.44 2069.67 1773.54 2079.89 1773.54 2088.51V2211.46C1773.54 2220.08 1779.44 2223.48 1786.9 2219.17L1901.46 2153.02C1908.92 2148.71 1914.82 2138.49 1914.82 2129.88V2006.92C1914.82 2000.73 1911.78 1997.23 1907.29 1997.35V1997.35ZM1636.63 2014.45C1639.3 2014.26 1642.33 2015.1 1645.42 2016.87C1648.51 2018.65 1651.54 2021.3 1654.22 2024.56C1656.89 2027.81 1659.11 2031.56 1660.66 2035.43C1662.2 2039.29 1663.01 2043.13 1663 2046.55C1663 2049.12 1662.55 2051.39 1661.67 2053.25C1660.79 2055.11 1659.5 2056.52 1657.87 2057.39C1656.24 2058.26 1654.31 2058.58 1652.18 2058.33C1650.05 2058.08 1647.76 2057.27 1645.46 2055.94C1643.15 2054.61 1640.87 2052.79 1638.74 2050.58C1636.61 2048.37 1634.68 2045.81 1633.05 2043.06C1631.42 2040.31 1630.13 2037.41 1629.24 2034.53C1628.36 2031.66 1627.91 2028.86 1627.92 2026.3C1627.91 2022.88 1628.71 2019.98 1630.24 2017.9C1631.77 2015.82 1633.98 2014.63 1636.63 2014.45ZM1896.67 2014.45C1899.32 2014.63 1901.53 2015.82 1903.06 2017.9C1904.59 2019.98 1905.39 2022.88 1905.39 2026.3C1905.38 2031.47 1903.53 2037.49 1900.24 2043.04C1896.95 2048.59 1892.49 2053.21 1887.84 2055.89C1883.19 2058.58 1878.74 2059.1 1875.45 2057.35C1872.16 2055.6 1870.31 2051.72 1870.3 2046.55C1870.29 2043.13 1871.1 2039.29 1872.64 2035.43C1874.19 2031.56 1876.41 2027.81 1879.08 2024.56C1881.76 2021.3 1884.79 2018.65 1887.88 2016.87C1890.97 2015.1 1894 2014.26 1896.67 2014.45H1896.67ZM1767.87 2016.25C1774.09 2016.41 1779.99 2017.95 1784.39 2020.56C1788.99 2023.35 1791.56 2027.09 1791.53 2030.99C1791.5 2034.89 1788.87 2038.62 1784.23 2041.37C1779.59 2044.13 1773.3 2045.68 1766.73 2045.7C1760.16 2045.72 1753.85 2044.2 1749.16 2041.47C1745.61 2039.36 1743.22 2036.67 1742.29 2033.74C1741.37 2030.81 1741.95 2027.79 1743.98 2025.06C1746 2022.34 1749.36 2020.04 1753.62 2018.46C1757.89 2016.89 1762.85 2016.12 1767.87 2016.25L1767.87 2016.25ZM1636.63 2062C1639.3 2061.82 1642.33 2062.66 1645.42 2064.43C1648.51 2066.21 1651.54 2068.86 1654.22 2072.12C1656.89 2075.37 1659.11 2079.12 1660.66 2082.99C1662.2 2086.85 1663.01 2090.69 1663 2094.11C1663 2096.68 1662.55 2098.95 1661.67 2100.81C1660.79 2102.67 1659.5 2104.08 1657.87 2104.95C1656.24 2105.82 1654.3 2106.14 1652.17 2105.89C1650.05 2105.64 1647.76 2104.83 1645.46 2103.5C1643.15 2102.17 1640.87 2100.35 1638.74 2098.14C1636.61 2095.93 1634.67 2093.37 1633.05 2090.62C1631.42 2087.86 1630.12 2084.97 1629.24 2082.09C1628.36 2079.22 1627.91 2076.42 1627.91 2073.86C1627.91 2070.44 1628.71 2067.54 1630.24 2065.46C1631.77 2063.38 1633.98 2062.19 1636.63 2062.01V2062ZM1723.96 2064.86C1726.62 2064.68 1729.65 2065.51 1732.74 2067.29C1735.83 2069.06 1738.86 2071.71 1741.54 2074.97C1744.21 2078.23 1746.44 2081.98 1747.98 2085.84C1749.52 2089.7 1750.33 2093.54 1750.32 2096.97C1750.32 2099.53 1749.87 2101.81 1748.99 2103.67C1748.11 2105.53 1746.82 2106.93 1745.19 2107.81C1743.56 2108.68 1741.63 2109 1739.5 2108.75C1737.37 2108.5 1735.08 2107.69 1732.78 2106.36C1730.47 2105.03 1728.19 2103.2 1726.06 2100.99C1723.93 2098.78 1722 2096.23 1720.37 2093.47C1718.74 2090.72 1717.45 2087.82 1716.57 2084.95C1715.69 2082.07 1715.23 2079.27 1715.24 2076.71C1715.23 2073.29 1716.03 2070.4 1717.56 2068.32C1719.09 2066.24 1721.3 2065.05 1723.96 2064.86V2064.86ZM1809.34 2064.86C1812 2065.05 1814.21 2066.24 1815.74 2068.32C1817.27 2070.4 1818.07 2073.29 1818.06 2076.71C1818.06 2081.88 1816.21 2087.9 1812.92 2093.45C1809.63 2099 1805.17 2103.63 1800.52 2106.31C1795.87 2108.99 1791.41 2109.52 1788.12 2107.77C1784.83 2106.02 1782.98 2102.13 1782.98 2096.97C1782.97 2093.54 1783.78 2089.7 1785.32 2085.84C1786.86 2081.98 1789.09 2078.23 1791.76 2074.97C1794.44 2071.71 1797.47 2069.06 1800.56 2067.29C1803.65 2065.51 1806.68 2064.68 1809.35 2064.86H1809.34ZM1853.01 2087.21C1853.01 2087.21 1853.01 2087.21 1853.01 2087.21C1855.67 2087.4 1857.87 2088.59 1859.4 2090.67C1860.93 2092.75 1861.73 2095.64 1861.73 2099.06C1861.72 2104.23 1859.87 2110.25 1856.58 2115.8C1853.29 2121.35 1848.83 2125.98 1844.18 2128.66C1839.53 2131.34 1835.08 2131.87 1831.79 2130.12C1828.5 2128.37 1826.65 2124.48 1826.64 2119.32C1826.63 2115.89 1827.44 2112.05 1828.99 2108.19C1830.53 2104.33 1832.75 2100.58 1835.42 2097.32C1838.1 2094.06 1841.13 2091.41 1844.22 2089.64C1847.31 2087.86 1850.34 2087.03 1853.01 2087.21V2087.21ZM1636.63 2110.12C1639.3 2109.93 1642.33 2110.77 1645.42 2112.55C1648.51 2114.32 1651.54 2116.97 1654.22 2120.23C1656.89 2123.49 1659.11 2127.24 1660.66 2131.1C1662.2 2134.96 1663.01 2138.8 1663 2142.23C1663 2144.79 1662.55 2147.07 1661.67 2148.93C1660.79 2150.78 1659.5 2152.19 1657.87 2153.06C1656.24 2153.93 1654.31 2154.25 1652.18 2154.01C1650.05 2153.76 1647.76 2152.94 1645.46 2151.61C1643.15 2150.28 1640.87 2148.46 1638.74 2146.25C1636.61 2144.04 1634.68 2141.48 1633.05 2138.73C1631.42 2135.98 1630.13 2133.08 1629.24 2130.21C1628.36 2127.33 1627.91 2124.53 1627.92 2121.97C1627.91 2118.55 1628.71 2115.66 1630.24 2113.57C1631.77 2111.49 1633.98 2110.3 1636.63 2110.12V2110.12ZM1896.67 2110.12C1899.32 2110.3 1901.53 2111.49 1903.06 2113.57C1904.59 2115.65 1905.39 2118.55 1905.39 2121.97C1905.38 2127.14 1903.53 2133.16 1900.24 2138.71C1896.95 2144.26 1892.49 2148.88 1887.84 2151.57C1883.19 2154.25 1878.74 2154.78 1875.45 2153.02C1872.16 2151.27 1870.31 2147.39 1870.3 2142.23C1870.29 2138.8 1871.1 2134.96 1872.64 2131.1C1874.19 2127.24 1876.41 2123.49 1879.08 2120.23C1881.76 2116.97 1884.79 2114.32 1887.88 2112.55C1890.97 2110.77 1894 2109.93 1896.67 2110.12H1896.67ZM1723.96 2112.42C1726.62 2112.24 1729.66 2113.07 1732.74 2114.85C1735.83 2116.62 1738.87 2119.27 1741.54 2122.53C1744.22 2125.79 1746.44 2129.54 1747.98 2133.4C1749.52 2137.26 1750.33 2141.1 1750.32 2144.53C1750.33 2147.09 1749.87 2149.37 1748.99 2151.23C1748.11 2153.09 1746.82 2154.49 1745.19 2155.36C1743.56 2156.24 1741.63 2156.56 1739.5 2156.31C1737.37 2156.06 1735.09 2155.25 1732.78 2153.92C1730.47 2152.59 1728.19 2150.76 1726.06 2148.55C1723.93 2146.34 1722 2143.79 1720.37 2141.03C1718.74 2138.28 1717.45 2135.38 1716.57 2132.51C1715.69 2129.63 1715.23 2126.83 1715.24 2124.27C1715.23 2120.85 1716.03 2117.96 1717.56 2115.88C1719.09 2113.8 1721.3 2112.61 1723.96 2112.42V2112.42ZM1723.96 2160.53C1726.62 2160.35 1729.66 2161.19 1732.74 2162.96C1735.83 2164.74 1738.87 2167.39 1741.54 2170.64C1744.22 2173.9 1746.44 2177.65 1747.98 2181.51C1749.52 2185.38 1750.33 2189.21 1750.32 2192.64C1750.33 2195.2 1749.87 2197.48 1748.99 2199.34C1748.11 2201.2 1746.82 2202.61 1745.19 2203.48C1743.56 2204.35 1741.63 2204.67 1739.5 2204.42C1737.37 2204.17 1735.09 2203.36 1732.78 2202.03C1730.47 2200.7 1728.19 2198.87 1726.06 2196.66C1723.93 2194.45 1722 2191.9 1720.37 2189.15C1718.74 2186.39 1717.45 2183.5 1716.57 2180.62C1715.69 2177.74 1715.23 2174.95 1715.24 2172.39C1715.23 2168.97 1716.03 2166.07 1717.56 2163.99C1719.09 2161.91 1721.3 2160.72 1723.96 2160.53V2160.53ZM1809.34 2160.53C1812 2160.72 1814.21 2161.91 1815.74 2163.99C1817.27 2166.07 1818.07 2168.97 1818.06 2172.39C1818.06 2177.55 1816.21 2183.57 1812.92 2189.12C1809.63 2194.67 1805.17 2199.3 1800.52 2201.98C1795.87 2204.67 1791.41 2205.19 1788.12 2203.44C1784.83 2201.69 1782.98 2197.8 1782.98 2192.64C1782.97 2189.21 1783.78 2185.38 1785.32 2181.51C1786.86 2177.65 1789.09 2173.9 1791.76 2170.64C1794.44 2167.39 1797.47 2164.74 1800.56 2162.96C1803.65 2161.18 1806.68 2160.35 1809.35 2160.53L1809.34 2160.53Z" fill="white"/>
<path d="M1618.47 2125.24V2008.74C1618.47 2001.04 1626.8 1996.23 1633.46 2000.07L1742.45 2062.82C1753.3 2069.07 1759.98 2080.63 1759.98 2093.15V2209.95C1759.98 2217.65 1751.64 2222.46 1744.98 2218.61L1635.95 2155.53C1625.13 2149.28 1618.47 2137.73 1618.47 2125.24Z" fill="black" fill-opacity="0.41"/>
<path d="M1915.14 2125.21V2008.36C1915.14 2000.67 1906.81 1995.86 1900.14 1999.7L1790.75 2062.81C1779.91 2069.06 1773.24 2080.62 1773.24 2093.13V2209.97C1773.24 2217.67 1781.57 2222.48 1788.23 2218.64L1897.63 2155.53C1908.46 2149.27 1915.14 2137.72 1915.14 2125.21Z" fill="black" fill-opacity="0.41"/>
<path d="M1876.54 2093.71C1885.83 2088.32 1897.3 2088.31 1906.6 2093.68L2058 2181.08C2067.28 2186.44 2073 2196.35 2073 2207.06V2375.44C2073 2386.1 2067.34 2395.96 2058.14 2401.34L1906.74 2489.84C1897.37 2495.32 1885.77 2495.31 1876.4 2489.81L1725.81 2401.35C1716.63 2395.97 1711 2386.12 1711 2375.49V2207.02C1711 2196.33 1716.69 2186.44 1725.95 2181.07L1876.54 2093.71Z" fill="#383838"/>
<path d="M1891.35 2105.16C1885.93 2105.16 1880.52 2106.37 1876.33 2108.8L1742.44 2186.25C1734.05 2191.1 1734.05 2198.77 1742.44 2203.63L1876.33 2281.07C1884.71 2285.93 1897.98 2285.93 1906.37 2281.07L2040.26 2203.63C2048.64 2198.77 2048.64 2191.1 2040.26 2186.25L1906.37 2108.8C1902.17 2106.37 1896.76 2105.16 1891.35 2105.16V2105.16ZM1892.98 2116.05C1899.97 2116.23 1906.6 2117.96 1911.55 2120.9C1916.73 2124.03 1919.61 2128.24 1919.57 2132.62C1919.54 2137 1916.59 2141.2 1911.37 2144.29C1906.15 2147.39 1899.08 2149.14 1891.7 2149.16C1884.31 2149.18 1877.21 2147.47 1871.95 2144.4C1867.96 2142.03 1865.27 2139.01 1864.23 2135.71C1863.19 2132.42 1863.85 2129.02 1866.12 2125.96C1868.39 2122.89 1872.17 2120.31 1876.96 2118.54C1881.76 2116.77 1887.34 2115.9 1892.98 2116.05L1892.98 2116.05ZM1788.52 2177.57C1788.52 2177.57 1788.52 2177.57 1788.52 2177.57C1795.52 2177.75 1802.15 2179.48 1807.1 2182.42C1812.35 2185.54 1815.3 2189.76 1815.3 2194.17C1815.3 2198.58 1812.35 2202.81 1807.1 2205.92C1801.85 2209.04 1794.72 2210.79 1787.29 2210.79C1779.87 2210.79 1772.74 2209.04 1767.49 2205.92C1763.5 2203.55 1760.81 2200.53 1759.77 2197.24C1758.73 2193.94 1759.39 2190.54 1761.66 2187.48C1763.93 2184.41 1767.71 2181.83 1772.51 2180.06C1777.3 2178.29 1782.88 2177.42 1788.52 2177.57H1788.52ZM1892.16 2177.78C1897.66 2177.83 1903.02 2178.84 1907.56 2180.69C1912.1 2182.53 1915.63 2185.13 1917.7 2188.15C1919.77 2191.18 1920.29 2194.5 1919.19 2197.7C1918.1 2200.9 1915.44 2203.84 1911.55 2206.15C1908.96 2207.72 1905.87 2208.96 1902.46 2209.82C1899.05 2210.67 1895.39 2211.12 1891.69 2211.13C1887.99 2211.14 1884.33 2210.71 1880.91 2209.88C1877.49 2209.04 1874.38 2207.81 1871.76 2206.26C1869.14 2204.71 1867.07 2202.86 1865.66 2200.83C1864.26 2198.8 1863.54 2196.63 1863.56 2194.43C1863.57 2192.24 1864.32 2190.06 1865.76 2188.04C1867.2 2186.02 1869.3 2184.19 1871.94 2182.65C1874.59 2181.08 1877.75 2179.84 1881.22 2179C1884.69 2178.16 1888.41 2177.75 1892.16 2177.78H1892.16ZM1997.04 2177.8C1997.05 2177.8 1997.05 2177.8 1997.05 2177.8C2004.04 2177.98 2010.67 2179.71 2015.62 2182.65C2020.84 2185.77 2023.76 2189.99 2023.74 2194.38C2023.72 2198.78 2020.77 2202.99 2015.54 2206.1C2010.3 2209.21 2003.2 2210.96 1995.79 2210.97C1988.39 2210.97 1981.27 2209.24 1976.01 2206.15C1972.02 2203.78 1969.33 2200.75 1968.29 2197.46C1967.25 2194.17 1967.91 2190.77 1970.19 2187.7C1972.46 2184.64 1976.24 2182.05 1981.03 2180.29C1985.83 2178.52 1991.41 2177.65 1997.04 2177.8V2177.8ZM1733.49 2218.3C1728.45 2218.16 1725.02 2222.1 1725.02 2229.06V2367.28C1725.02 2376.97 1731.66 2388.46 1740.05 2393.31L1868.83 2467.68C1877.22 2472.52 1883.86 2468.69 1883.86 2459V2320.78C1883.86 2311.09 1877.22 2299.6 1868.83 2294.76L1740.05 2220.39C1737.69 2219.02 1735.47 2218.35 1733.49 2218.29V2218.3ZM2049.72 2218.3C2047.74 2218.35 2045.52 2219.03 2043.17 2220.39L1914.38 2294.76C1905.99 2299.6 1899.35 2311.09 1899.35 2320.78V2459.01C1899.35 2468.69 1905.99 2472.52 1914.38 2467.68L2043.17 2393.31C2051.56 2388.47 2058.19 2376.98 2058.19 2367.29V2229.06C2058.19 2222.1 2054.76 2218.17 2049.72 2218.3V2218.3ZM1745.44 2237.52C1748.44 2237.31 1751.85 2238.25 1755.32 2240.25C1758.79 2242.24 1762.2 2245.22 1765.21 2248.89C1768.22 2252.55 1770.71 2256.76 1772.45 2261.11C1774.18 2265.45 1775.09 2269.76 1775.08 2273.62C1775.08 2276.5 1774.58 2279.06 1773.59 2281.15C1772.6 2283.24 1771.14 2284.82 1769.31 2285.8C1767.48 2286.78 1765.31 2287.14 1762.91 2286.86C1760.52 2286.58 1757.95 2285.66 1755.36 2284.17C1752.77 2282.67 1750.2 2280.62 1747.81 2278.14C1745.41 2275.65 1743.24 2272.78 1741.41 2269.69C1739.57 2266.59 1738.12 2263.33 1737.13 2260.1C1736.14 2256.87 1735.63 2253.72 1735.64 2250.84C1735.63 2247 1736.53 2243.74 1738.25 2241.4C1739.97 2239.07 1742.45 2237.73 1745.44 2237.52ZM2037.77 2237.52C2040.76 2237.73 2043.24 2239.07 2044.96 2241.4C2046.68 2243.74 2047.58 2247 2047.58 2250.84C2047.57 2256.65 2045.49 2263.42 2041.79 2269.66C2038.09 2275.9 2033.08 2281.1 2027.85 2284.12C2022.63 2287.13 2017.62 2287.72 2013.92 2285.75C2010.22 2283.79 2008.14 2279.42 2008.13 2273.62C2008.13 2269.76 2009.03 2265.45 2010.77 2261.11C2012.5 2256.76 2015 2252.55 2018.01 2248.89C2021.01 2245.22 2024.42 2242.24 2027.9 2240.25C2031.37 2238.25 2034.77 2237.31 2037.77 2237.52H2037.77ZM1892.98 2239.55C1899.97 2239.73 1906.6 2241.46 1911.55 2244.4C1916.72 2247.52 1919.61 2251.74 1919.57 2256.12C1919.54 2260.5 1916.59 2264.69 1911.37 2267.79C1906.15 2270.89 1899.08 2272.64 1891.69 2272.66C1884.31 2272.68 1877.21 2270.97 1871.95 2267.9C1867.95 2265.53 1865.26 2262.5 1864.22 2259.21C1863.18 2255.92 1863.84 2252.52 1866.12 2249.45C1868.39 2246.39 1872.17 2243.8 1876.96 2242.04C1881.76 2240.27 1887.34 2239.4 1892.97 2239.55L1892.98 2239.55ZM1988.69 2265.86C1991.68 2266.06 1994.16 2267.41 1995.88 2269.74C1997.6 2272.08 1998.5 2275.34 1998.49 2279.18C1998.48 2284.99 1996.4 2291.76 1992.71 2298C1989.01 2304.24 1984 2309.44 1978.77 2312.46C1973.54 2315.47 1968.53 2316.06 1964.83 2314.09C1961.13 2312.12 1959.05 2307.76 1959.05 2301.96C1959.04 2298.1 1959.95 2293.79 1961.68 2289.44C1963.42 2285.1 1965.91 2280.89 1968.92 2277.23C1971.93 2273.56 1975.34 2270.58 1978.81 2268.59C1982.28 2266.59 1985.69 2265.65 1988.69 2265.86H1988.69ZM1843.61 2294.2C1846.61 2293.99 1850.02 2294.93 1853.49 2296.93C1856.96 2298.92 1860.37 2301.9 1863.38 2305.57C1866.38 2309.23 1868.88 2313.44 1870.61 2317.78C1872.35 2322.13 1873.26 2326.44 1873.25 2330.29C1873.25 2333.18 1872.74 2335.74 1871.75 2337.83C1870.77 2339.92 1869.31 2341.5 1867.48 2342.48C1865.65 2343.46 1863.47 2343.82 1861.08 2343.54C1858.69 2343.26 1856.12 2342.34 1853.53 2340.85C1850.94 2339.35 1848.37 2337.3 1845.98 2334.82C1843.58 2332.33 1841.41 2329.46 1839.57 2326.36C1837.74 2323.27 1836.29 2320.01 1835.3 2316.78C1834.31 2313.55 1833.8 2310.4 1833.81 2307.52C1833.8 2303.68 1834.7 2300.42 1836.42 2298.08C1838.14 2295.74 1840.62 2294.4 1843.61 2294.2H1843.61ZM1939.6 2294.2C1942.59 2294.4 1945.07 2295.74 1946.79 2298.08C1948.51 2300.42 1949.41 2303.68 1949.41 2307.52C1949.4 2313.33 1947.32 2320.1 1943.62 2326.34C1939.92 2332.58 1934.91 2337.78 1929.69 2340.8C1924.46 2343.81 1919.45 2344.4 1915.75 2342.43C1912.05 2340.46 1909.97 2336.1 1909.96 2330.29C1909.96 2326.44 1910.86 2322.13 1912.6 2317.78C1914.33 2313.44 1916.83 2309.23 1919.84 2305.56C1922.84 2301.9 1926.25 2298.92 1929.73 2296.93C1933.2 2294.93 1936.61 2293.99 1939.61 2294.2H1939.6ZM1745.44 2345.08C1748.44 2344.87 1751.85 2345.81 1755.32 2347.81C1758.79 2349.8 1762.2 2352.78 1765.21 2356.44C1768.22 2360.11 1770.71 2364.32 1772.45 2368.66C1774.18 2373.01 1775.09 2377.32 1775.08 2381.17C1775.08 2384.06 1774.58 2386.61 1773.59 2388.7C1772.6 2390.79 1771.14 2392.37 1769.31 2393.36C1767.48 2394.34 1765.31 2394.7 1762.91 2394.42C1760.52 2394.14 1757.95 2393.22 1755.36 2391.73C1752.77 2390.23 1750.2 2388.18 1747.81 2385.7C1745.41 2383.21 1743.24 2380.34 1741.41 2377.24C1739.57 2374.15 1738.12 2370.89 1737.13 2367.66C1736.14 2364.43 1735.63 2361.28 1735.64 2358.4C1735.63 2354.56 1736.53 2351.3 1738.25 2348.96C1739.97 2346.62 1742.45 2345.28 1745.44 2345.08H1745.44ZM2037.77 2345.08C2040.76 2345.28 2043.24 2346.62 2044.96 2348.96C2046.68 2351.3 2047.58 2354.56 2047.58 2358.4C2047.57 2364.21 2045.49 2370.98 2041.79 2377.22C2038.09 2383.46 2033.08 2388.66 2027.85 2391.67C2022.63 2394.69 2017.62 2395.28 2013.92 2393.31C2010.22 2391.34 2008.14 2386.98 2008.13 2381.17C2008.13 2377.32 2009.03 2373.01 2010.77 2368.66C2012.5 2364.32 2015 2360.11 2018 2356.44C2021.01 2352.78 2024.42 2349.8 2027.9 2347.8C2031.37 2345.81 2034.77 2344.87 2037.77 2345.08ZM1988.69 2373.41C1991.68 2373.62 1994.16 2374.96 1995.88 2377.3C1997.6 2379.64 1998.5 2382.9 1998.49 2386.74C1998.48 2392.55 1996.4 2399.32 1992.71 2405.56C1989.01 2411.8 1984 2417 1978.77 2420.01C1973.54 2423.03 1968.53 2423.62 1964.83 2421.65C1961.13 2419.68 1959.05 2415.32 1959.05 2409.51C1959.04 2405.66 1959.95 2401.35 1961.68 2397C1963.42 2392.66 1965.91 2388.45 1968.92 2384.78C1971.93 2381.12 1975.34 2378.14 1978.81 2376.15C1982.28 2374.15 1985.69 2373.21 1988.69 2373.42V2373.41ZM1843.61 2401.75C1846.61 2401.54 1850.02 2402.49 1853.49 2404.48C1856.96 2406.48 1860.37 2409.46 1863.38 2413.12C1866.39 2416.78 1868.88 2421 1870.62 2425.34C1872.35 2429.68 1873.26 2434 1873.25 2437.85C1873.25 2440.73 1872.75 2443.29 1871.76 2445.38C1870.77 2447.47 1869.31 2449.05 1867.48 2450.03C1865.65 2451.01 1863.48 2451.37 1861.08 2451.09C1858.69 2450.81 1856.12 2449.9 1853.53 2448.4C1850.94 2446.91 1848.37 2444.86 1845.98 2442.37C1843.58 2439.89 1841.41 2437.02 1839.58 2433.92C1837.74 2430.83 1836.29 2427.57 1835.3 2424.34C1834.31 2421.1 1833.8 2417.96 1833.81 2415.08C1833.8 2411.23 1834.7 2407.98 1836.42 2405.64C1838.14 2403.3 1840.62 2401.96 1843.61 2401.75L1843.61 2401.75ZM1939.61 2401.75C1942.59 2401.96 1945.07 2403.3 1946.79 2405.64C1948.51 2407.98 1949.41 2411.23 1949.41 2415.08C1949.4 2420.89 1947.32 2427.66 1943.62 2433.9C1939.92 2440.14 1934.91 2445.33 1929.69 2448.35C1924.46 2451.37 1919.45 2451.96 1915.75 2449.99C1912.05 2448.02 1909.97 2443.66 1909.96 2437.85C1909.96 2434 1910.86 2429.68 1912.6 2425.34C1914.33 2421 1916.83 2416.78 1919.84 2413.12C1922.84 2409.46 1926.25 2406.48 1929.73 2404.48C1933.2 2402.49 1936.61 2401.55 1939.61 2401.75V2401.75Z" fill="white"/>
<path d="M1725.02 2364.58V2228.95C1725.02 2221.26 1733.35 2216.45 1740.01 2220.29L1866.58 2293.16C1877.42 2299.4 1884.11 2310.97 1884.11 2323.49V2459.46C1884.11 2467.17 1875.77 2471.98 1869.1 2468.12L1742.5 2394.88C1731.68 2388.62 1725.02 2377.07 1725.02 2364.58Z" fill="black" fill-opacity="0.41"/>
<path d="M2058.54 2364.55V2228.53C2058.54 2220.84 2050.21 2216.02 2043.54 2219.87L1916.52 2293.15C1905.69 2299.4 1899.01 2310.96 1899.01 2323.47V2459.49C1899.01 2467.18 1907.34 2472 1914.01 2468.15L2041.03 2394.87C2051.86 2388.62 2058.54 2377.06 2058.54 2364.55Z" fill="black" fill-opacity="0.41"/>
<path d="M1817.98 2392.71C1827.27 2387.32 1838.73 2387.31 1848.04 2392.68L2025 2494.84C2034.28 2500.2 2040 2510.1 2040 2520.82V2717.79C2040 2728.45 2034.34 2738.31 2025.14 2743.69L1848.18 2847.13C1838.8 2852.61 1827.2 2852.6 1817.84 2847.1L1641.81 2743.7C1632.63 2738.31 1627 2728.47 1627 2717.83V2520.78C1627 2510.08 1632.69 2500.2 1641.95 2494.83L1817.98 2392.71Z" fill="#383838"/>
<path d="M1832.75 2407C1826.56 2407 1820 2408.56 1815.62 2411.09L1662.87 2499.47C1658.5 2502 1655.78 2505.8 1655.78 2509.38C1655.78 2512.95 1658.47 2516.75 1662.84 2519.28L1815.62 2607.66C1820 2610.19 1826.56 2611.75 1832.75 2611.75C1838.93 2611.75 1845.53 2610.19 1849.9 2607.66L2002.65 2519.28C2007.03 2516.75 2009.75 2512.95 2009.75 2509.37C2009.75 2505.79 2007 2502 2002.62 2499.47L1849.87 2411.09C1845.5 2408.56 1838.93 2407 1832.75 2407L1832.75 2407ZM1832.75 2419.34C1837.02 2419.31 1841.27 2419.78 1845.23 2420.74C1849.19 2421.69 1852.79 2423.11 1855.81 2424.91C1861.68 2428.48 1864.95 2433.28 1864.9 2438.27C1864.85 2443.26 1861.49 2448.03 1855.54 2451.56C1849.6 2455.09 1841.54 2457.09 1833.14 2457.11C1824.73 2457.14 1816.64 2455.2 1810.62 2451.72C1806.26 2449.13 1803.25 2445.85 1801.96 2442.27C1800.67 2438.69 1801.15 2434.96 1803.36 2431.54C1805.56 2428.12 1809.38 2425.15 1814.36 2422.99C1819.34 2420.83 1825.27 2419.58 1831.43 2419.37C1831.87 2419.36 1832.31 2419.35 1832.75 2419.34V2419.34ZM1652.07 2536.14C1650.57 2536.19 1649.19 2536.54 1648.03 2537.21C1644.94 2539 1643 2543.25 1643 2548.3V2705.99C1643 2711.04 1644.94 2717.54 1648.03 2722.9C1651.13 2728.26 1655.76 2733.17 1660.13 2735.69L1807.08 2820.55C1811.45 2823.08 1816.11 2823.52 1819.2 2821.74C1822.29 2819.95 1824.21 2815.68 1824.21 2810.63V2652.94C1824.21 2647.89 1822.29 2641.41 1819.2 2636.05C1816.11 2630.69 1811.45 2625.8 1807.08 2623.27L1660.13 2538.41C1657.4 2536.83 1654.56 2536.06 1652.07 2536.14V2536.14ZM2014.04 2536.15C2011.53 2536.07 2008.69 2536.84 2005.95 2538.42L1859.04 2623.26C1854.66 2625.79 1850.01 2630.71 1846.91 2636.07L1846.83 2636.21C1843.78 2641.54 1841.9 2647.92 1841.9 2652.93V2810.65C1841.9 2815.7 1843.82 2819.97 1846.91 2821.76C1850.01 2823.55 1854.66 2823.07 1859.04 2820.54L2005.95 2735.7C2010.33 2733.17 2014.98 2728.28 2018.08 2722.92C2021.17 2717.56 2023.11 2711.06 2023.11 2706.01V2548.29C2023.11 2543.24 2021.17 2539.02 2018.08 2537.23C2016.92 2536.56 2015.54 2536.2 2014.03 2536.15H2014.04ZM1999.81 2557.96C2003.22 2558.19 2006.05 2559.72 2008.01 2562.39C2009.98 2565.06 2011 2568.77 2011 2573.16C2010.99 2579.79 2008.62 2587.51 2004.4 2594.63C2000.18 2601.75 1994.46 2607.68 1988.5 2611.12C1982.53 2614.56 1976.81 2615.24 1972.6 2612.99C1968.38 2610.74 1966 2605.76 1966 2599.14C1965.99 2594.75 1967.02 2589.82 1969 2584.87C1970.98 2579.91 1973.83 2575.1 1977.26 2570.93C1980.69 2566.75 1984.58 2563.35 1988.54 2561.07C1992.5 2558.79 1996.39 2557.72 1999.81 2557.96V2557.96ZM1832.75 2560.25C1837.02 2560.21 1841.27 2560.69 1845.23 2561.64C1849.19 2562.6 1852.79 2564.02 1855.81 2565.81C1861.75 2569.37 1865.07 2574.19 1865.05 2579.2C1865.03 2584.21 1861.67 2589.01 1855.69 2592.56C1849.72 2596.1 1841.63 2598.1 1833.18 2598.11C1824.73 2598.12 1816.62 2596.15 1810.62 2592.63C1806.26 2590.04 1803.25 2586.76 1801.96 2583.18C1800.67 2579.6 1801.15 2575.87 1803.35 2572.45C1805.55 2569.03 1809.38 2566.06 1814.36 2563.9C1819.34 2561.74 1825.27 2560.48 1831.43 2560.28C1831.87 2560.27 1832.31 2560.26 1832.75 2560.25V2560.25ZM1722.29 2651.29C1725.71 2651.05 1729.6 2652.12 1733.56 2654.4C1737.52 2656.68 1741.41 2660.08 1744.85 2664.26C1748.28 2668.43 1751.12 2673.24 1753.1 2678.2C1755.08 2683.15 1756.12 2688.08 1756.11 2692.47C1756.1 2699.09 1753.73 2704.07 1749.51 2706.32C1745.29 2708.57 1739.57 2707.89 1733.61 2704.45C1727.65 2701.01 1721.93 2695.08 1717.71 2687.96C1713.49 2680.84 1711.12 2673.12 1711.11 2666.49C1711.1 2662.1 1712.13 2658.39 1714.09 2655.72C1716.05 2653.05 1718.88 2651.52 1722.29 2651.29V2651.29ZM1943.82 2651.29C1943.82 2651.29 1943.82 2651.29 1943.82 2651.29C1947.23 2651.52 1950.05 2653.05 1952.02 2655.72C1953.98 2658.39 1955.01 2662.1 1955 2666.49C1954.99 2673.12 1952.62 2680.84 1948.4 2687.96C1944.18 2695.08 1938.46 2701.01 1932.5 2704.45C1926.54 2707.89 1920.82 2708.57 1916.6 2706.32C1912.38 2704.07 1910.01 2699.09 1910 2692.47C1909.99 2688.08 1911.03 2683.15 1913 2678.2C1914.98 2673.24 1917.83 2668.43 1921.26 2664.26C1924.69 2660.08 1928.58 2656.68 1932.55 2654.4C1936.51 2652.12 1940.39 2651.05 1943.82 2651.29V2651.29ZM1887.81 2745.33C1891.22 2745.57 1894.05 2747.1 1896.01 2749.76C1897.98 2752.43 1899 2756.15 1899 2760.53C1898.99 2767.16 1896.62 2774.88 1892.4 2782C1888.18 2789.12 1882.46 2795.05 1876.5 2798.49C1870.53 2801.94 1864.81 2802.61 1860.6 2800.36C1856.38 2798.12 1854 2793.14 1854 2786.51C1853.99 2782.12 1855.02 2777.2 1857 2772.24C1858.98 2767.29 1861.83 2762.48 1865.26 2758.3C1868.69 2754.12 1872.58 2750.72 1876.54 2748.44C1880.5 2746.17 1884.39 2745.09 1887.81 2745.33V2745.33Z" fill="white"/>
<path d="M1643 2705.81V2545.8C1643 2538.1 1651.32 2533.29 1657.99 2537.13L1806.96 2622.9C1817.81 2629.15 1824.5 2640.72 1824.5 2653.24V2813.66C1824.5 2821.36 1816.16 2826.17 1809.49 2822.32L1660.47 2736.11C1649.66 2729.85 1643 2718.31 1643 2705.81Z" fill="black" fill-opacity="0.41"/>
<path d="M2023.5 2705.79V2545.31C2023.5 2537.62 2015.17 2532.81 2008.5 2536.65L1859.01 2622.9C1848.18 2629.15 1841.5 2640.71 1841.5 2653.21V2813.69C1841.5 2821.38 1849.83 2826.19 1856.5 2822.35L2005.99 2736.1C2016.82 2729.85 2023.5 2718.29 2023.5 2705.79Z" fill="black" fill-opacity="0.41"/>
<path d="M1405.98 2093.71C1415.27 2088.32 1426.73 2088.31 1436.04 2093.68L1613 2195.84C1622.28 2201.2 1628 2211.1 1628 2221.82V2418.79C1628 2429.45 1622.34 2439.31 1613.14 2444.69L1436.18 2548.13C1426.8 2553.61 1415.2 2553.6 1405.84 2548.1L1229.81 2444.7C1220.63 2439.31 1215 2429.47 1215 2418.83V2221.78C1215 2211.08 1220.69 2201.2 1229.95 2195.83L1405.98 2093.71Z" fill="#383838"/>
<path d="M1420.75 2108C1414.58 2108 1408.4 2109.38 1403.62 2112.15L1250.86 2200.51C1241.29 2206.05 1241.29 2214.8 1250.86 2220.34L1403.62 2308.7C1413.19 2314.23 1428.32 2314.23 1437.89 2308.7L1590.64 2220.34C1600.21 2214.8 1600.21 2206.05 1590.64 2200.51L1437.89 2112.15C1433.1 2109.38 1426.93 2108 1420.75 2108V2108ZM1303.44 2190.61C1303.44 2190.61 1303.44 2190.61 1303.44 2190.61C1311.43 2190.82 1318.99 2192.79 1324.64 2196.15C1330.63 2199.7 1334 2204.52 1334 2209.55C1334 2214.58 1330.63 2219.4 1324.64 2222.96C1318.64 2226.52 1310.52 2228.51 1302.04 2228.51C1293.57 2228.51 1285.44 2226.51 1279.45 2222.96C1274.9 2220.26 1271.82 2216.8 1270.64 2213.05C1269.45 2209.29 1270.2 2205.41 1272.8 2201.92C1275.39 2198.42 1279.7 2195.47 1285.17 2193.45C1290.64 2191.43 1297.01 2190.44 1303.44 2190.61L1303.44 2190.61ZM1421.68 2190.86C1427.96 2190.91 1434.07 2192.06 1439.25 2194.17C1444.43 2196.27 1448.46 2199.23 1450.82 2202.69C1453.18 2206.14 1453.77 2209.93 1452.52 2213.58C1451.28 2217.23 1448.25 2220.58 1443.81 2223.22C1440.85 2225 1437.32 2226.43 1433.44 2227.4C1429.55 2228.38 1425.37 2228.88 1421.15 2228.89C1416.93 2228.91 1412.75 2228.42 1408.84 2227.47C1404.94 2226.52 1401.39 2225.11 1398.41 2223.34C1395.42 2221.57 1393.06 2219.47 1391.45 2217.15C1389.85 2214.83 1389.03 2212.35 1389.05 2209.85C1389.07 2207.34 1389.93 2204.87 1391.57 2202.56C1393.21 2200.25 1395.61 2198.16 1398.62 2196.41C1401.64 2194.61 1405.24 2193.2 1409.2 2192.24C1413.16 2191.29 1417.41 2190.82 1421.68 2190.86H1421.68ZM1541.34 2190.87C1541.34 2190.87 1541.35 2190.87 1541.35 2190.87C1549.33 2191.08 1556.89 2193.05 1562.54 2196.41C1568.49 2199.97 1571.82 2204.78 1571.8 2209.79C1571.78 2214.81 1568.42 2219.61 1562.44 2223.16C1556.46 2226.7 1548.37 2228.7 1539.92 2228.71C1531.47 2228.72 1523.35 2226.75 1517.35 2223.22C1512.8 2220.52 1509.73 2217.06 1508.54 2213.31C1507.36 2209.55 1508.11 2205.67 1510.7 2202.17C1513.3 2198.68 1517.61 2195.73 1523.08 2193.71C1528.54 2191.69 1534.91 2190.7 1541.34 2190.87V2190.87ZM1240.66 2237.08C1234.91 2236.92 1231 2241.41 1231 2249.36V2407.05C1231 2418.1 1238.57 2431.22 1248.14 2436.74L1395.07 2521.59C1404.64 2527.12 1412.21 2522.75 1412.21 2511.7V2354C1412.21 2342.94 1404.64 2329.84 1395.07 2324.31L1248.14 2239.46C1245.45 2237.91 1242.92 2237.13 1240.66 2237.07V2237.08ZM1601.44 2237.08C1599.19 2237.14 1596.65 2237.91 1593.96 2239.46L1447.03 2324.31C1437.46 2329.84 1429.89 2342.95 1429.89 2354V2511.7C1429.89 2522.75 1437.46 2527.12 1447.03 2521.59L1593.96 2436.75C1603.53 2431.22 1611.1 2418.11 1611.1 2407.06V2249.36C1611.1 2241.42 1607.19 2236.93 1601.44 2237.08V2237.08ZM1366.29 2323.67C1369.71 2323.43 1373.6 2324.51 1377.56 2326.78C1381.52 2329.06 1385.41 2332.46 1388.85 2336.64C1392.28 2340.82 1395.12 2345.63 1397.1 2350.58C1399.08 2355.53 1400.12 2360.46 1400.11 2364.85C1400.11 2368.14 1399.53 2371.06 1398.4 2373.44C1397.27 2375.83 1395.62 2377.63 1393.53 2378.75C1391.44 2379.87 1388.96 2380.28 1386.23 2379.96C1383.49 2379.64 1380.57 2378.6 1377.61 2376.89C1374.65 2375.19 1371.72 2372.85 1368.99 2370.01C1366.26 2367.18 1363.78 2363.9 1361.69 2360.37C1359.6 2356.84 1357.94 2353.12 1356.81 2349.43C1355.68 2345.75 1355.11 2342.16 1355.11 2338.87C1355.1 2334.49 1356.13 2330.77 1358.09 2328.1C1360.05 2325.44 1362.88 2323.91 1366.29 2323.67V2323.67ZM1531.81 2352.34C1531.81 2352.34 1531.82 2352.34 1531.82 2352.34C1535.22 2352.57 1538.05 2354.1 1540.01 2356.77C1541.98 2359.44 1543 2363.15 1543 2367.54C1542.99 2374.17 1540.62 2381.89 1536.4 2389.01C1532.18 2396.12 1526.46 2402.06 1520.5 2405.5C1514.53 2408.94 1508.81 2409.61 1504.6 2407.37C1500.38 2405.12 1498 2400.14 1498 2393.52C1497.99 2389.12 1499.02 2384.2 1501 2379.25C1502.98 2374.29 1505.83 2369.48 1509.26 2365.3C1512.69 2361.13 1516.58 2357.73 1520.54 2355.45C1524.5 2353.17 1528.39 2352.1 1531.81 2352.34V2352.34ZM1254.29 2381.72C1257.71 2381.48 1261.6 2382.55 1265.56 2384.83C1269.52 2387.11 1273.41 2390.51 1276.85 2394.69C1280.28 2398.86 1283.13 2403.67 1285.1 2408.63C1287.08 2413.58 1288.12 2418.5 1288.11 2422.9C1288.11 2426.19 1287.53 2429.11 1286.4 2431.49C1285.27 2433.88 1283.62 2435.68 1281.53 2436.8C1279.44 2437.92 1276.96 2438.33 1274.23 2438.01C1271.49 2437.69 1268.57 2436.65 1265.61 2434.94C1262.65 2433.23 1259.72 2430.89 1256.99 2428.06C1254.26 2425.22 1251.78 2421.95 1249.69 2418.42C1247.6 2414.88 1245.94 2411.17 1244.81 2407.48C1243.68 2403.79 1243.11 2400.2 1243.11 2396.92C1243.1 2392.53 1244.13 2388.82 1246.09 2386.15C1248.05 2383.48 1250.88 2381.95 1254.29 2381.72V2381.72Z" fill="white"/>
<path d="M1231 2406.81V2246.8C1231 2239.1 1239.32 2234.29 1245.99 2238.13L1394.96 2323.9C1405.81 2330.15 1412.5 2341.72 1412.5 2354.24V2514.66C1412.5 2522.36 1404.16 2527.17 1397.49 2523.32L1248.47 2437.11C1237.66 2430.85 1231 2419.31 1231 2406.81Z" fill="black" fill-opacity="0.41"/>
<path d="M1611.5 2406.79V2246.31C1611.5 2238.62 1603.17 2233.81 1596.5 2237.65L1447.01 2323.9C1436.18 2330.15 1429.5 2341.71 1429.5 2354.21V2514.69C1429.5 2522.38 1437.83 2527.19 1444.5 2523.35L1593.99 2437.1C1604.82 2430.85 1611.5 2419.29 1611.5 2406.79Z" fill="black" fill-opacity="0.41"/>
<path d="M2255.02 2227.71C2264.31 2222.32 2275.78 2222.31 2285.08 2227.68L2445 2320C2454.28 2325.36 2460 2335.27 2460 2345.98V2518.28C2460 2529 2454.28 2538.9 2445 2544.26L2285.08 2636.58C2275.78 2641.95 2264.31 2641.94 2255.02 2636.55L2095.95 2544.27C2086.69 2538.9 2081 2529.01 2081 2518.32V2345.94C2081 2335.25 2086.69 2325.36 2095.95 2319.99L2255.02 2227.71Z" fill="#383838"/>
<path d="M2269.82 2237.81C2264.15 2237.81 2258.48 2239.08 2254.09 2241.62L2113.91 2322.71C2105.13 2327.79 2105.13 2335.82 2113.91 2340.9L2254.09 2421.99C2262.87 2427.07 2276.76 2427.07 2285.54 2421.99L2425.72 2340.9C2434.5 2335.82 2434.5 2327.79 2425.72 2322.71L2285.54 2241.62C2281.15 2239.08 2275.48 2237.81 2269.82 2237.81V2237.81ZM2270.67 2313.85C2276.43 2313.9 2282.04 2314.95 2286.79 2316.88C2291.55 2318.81 2295.24 2321.53 2297.4 2324.7C2299.57 2327.87 2300.12 2331.35 2298.97 2334.7C2297.83 2338.05 2295.04 2341.13 2290.97 2343.54C2288.26 2345.18 2285.02 2346.48 2281.46 2347.37C2277.89 2348.27 2274.06 2348.73 2270.19 2348.74C2266.32 2348.75 2262.48 2348.3 2258.9 2347.43C2255.33 2346.55 2252.07 2345.27 2249.34 2343.64C2246.6 2342.02 2244.43 2340.09 2242.96 2337.97C2241.48 2335.84 2240.73 2333.57 2240.75 2331.27C2240.76 2328.97 2241.55 2326.7 2243.05 2324.59C2244.55 2322.47 2246.74 2320.55 2249.5 2318.94C2252.28 2317.29 2255.58 2316 2259.21 2315.12C2262.85 2314.25 2266.74 2313.81 2270.66 2313.85H2270.67ZM2104.55 2356.26C2099.27 2356.12 2095.68 2360.24 2095.68 2367.53V2512.24C2095.68 2522.39 2102.63 2534.42 2111.41 2539.49L2246.25 2617.35C2255.03 2622.42 2261.98 2618.41 2261.98 2608.27V2463.56C2261.98 2453.41 2255.03 2441.39 2246.25 2436.31L2111.41 2358.45C2108.94 2357.02 2106.62 2356.32 2104.55 2356.26V2356.26ZM2435.62 2356.26C2433.56 2356.32 2431.23 2357.03 2428.77 2358.45L2293.93 2436.31C2285.14 2441.39 2278.2 2453.42 2278.2 2463.56V2608.28C2278.2 2618.42 2285.14 2622.43 2293.93 2617.35L2428.77 2539.49C2437.55 2534.42 2444.49 2522.39 2444.49 2512.25V2367.53C2444.49 2360.24 2440.9 2356.12 2435.62 2356.27V2356.26ZM2117.06 2376.39C2120.2 2376.17 2123.77 2377.15 2127.4 2379.24C2131.03 2381.33 2134.61 2384.45 2137.75 2388.29C2140.9 2392.12 2143.52 2396.54 2145.33 2401.08C2147.15 2405.63 2148.1 2410.15 2148.09 2414.18C2148.09 2417.2 2147.56 2419.88 2146.53 2422.06C2145.49 2424.25 2143.97 2425.91 2142.05 2426.93C2140.13 2427.96 2137.86 2428.34 2135.35 2428.04C2132.84 2427.75 2130.16 2426.79 2127.44 2425.23C2124.73 2423.66 2122.04 2421.52 2119.54 2418.91C2117.03 2416.31 2114.75 2413.3 2112.83 2410.06C2110.92 2406.82 2109.4 2403.41 2108.36 2400.03C2107.32 2396.64 2106.79 2393.35 2106.8 2390.34C2106.79 2386.31 2107.73 2382.9 2109.53 2380.46C2111.33 2378.01 2113.93 2376.6 2117.06 2376.39ZM2320.34 2435.73C2323.47 2435.94 2326.06 2437.35 2327.86 2439.8C2329.67 2442.24 2330.61 2445.65 2330.6 2449.68C2330.6 2455.76 2328.42 2462.85 2324.55 2469.38C2320.68 2475.91 2315.43 2481.35 2309.96 2484.51C2304.48 2487.67 2299.24 2488.29 2295.36 2486.23C2291.49 2484.17 2289.31 2479.6 2289.31 2473.52C2289.3 2469.49 2290.25 2464.97 2292.07 2460.42C2293.88 2455.88 2296.49 2451.46 2299.64 2447.63C2302.79 2443.79 2306.36 2440.67 2310 2438.58C2313.63 2436.5 2317.2 2435.51 2320.34 2435.73H2320.34ZM2168.45 2462.03C2171.59 2461.82 2175.15 2462.8 2178.79 2464.89C2182.42 2466.98 2185.99 2470.1 2189.14 2473.93C2192.29 2477.77 2194.91 2482.18 2196.72 2486.73C2198.54 2491.27 2199.49 2495.79 2199.48 2499.83C2199.47 2505.9 2197.29 2510.47 2193.42 2512.53C2189.55 2514.6 2184.3 2513.98 2178.83 2510.82C2173.36 2507.66 2168.11 2502.22 2164.24 2495.69C2160.37 2489.15 2158.19 2482.07 2158.18 2475.98C2158.18 2471.96 2159.12 2468.55 2160.92 2466.1C2162.72 2463.65 2165.32 2462.25 2168.45 2462.03V2462.03ZM2423.12 2488.99C2426.25 2489.21 2428.84 2490.62 2430.65 2493.06C2432.45 2495.51 2433.39 2498.92 2433.38 2502.95C2433.38 2509.03 2431.2 2516.12 2427.33 2522.65C2423.45 2529.18 2418.21 2534.62 2412.73 2537.78C2407.26 2540.94 2402.01 2541.56 2398.14 2539.5C2394.27 2537.44 2392.09 2532.86 2392.09 2526.79C2392.08 2522.75 2393.03 2518.24 2394.85 2513.69C2396.66 2509.14 2399.27 2504.73 2402.42 2500.9C2405.57 2497.06 2409.14 2493.94 2412.78 2491.85C2416.41 2489.76 2419.98 2488.78 2423.12 2488.99H2423.12ZM2219.84 2548.33C2222.98 2548.12 2226.55 2549.1 2230.18 2551.19C2233.82 2553.28 2237.39 2556.4 2240.54 2560.24C2243.68 2564.07 2246.3 2568.48 2248.11 2573.03C2249.93 2577.58 2250.88 2582.09 2250.87 2586.13C2250.87 2589.14 2250.34 2591.82 2249.31 2594.01C2248.27 2596.2 2246.75 2597.85 2244.83 2598.88C2242.91 2599.91 2240.64 2600.28 2238.13 2599.99C2235.62 2599.7 2232.94 2598.74 2230.22 2597.18C2227.51 2595.61 2224.82 2593.46 2222.32 2590.86C2219.81 2588.26 2217.53 2585.25 2215.61 2582.01C2213.7 2578.77 2212.18 2575.36 2211.14 2571.98C2210.1 2568.59 2209.57 2565.3 2209.58 2562.29C2209.57 2558.26 2210.51 2554.85 2212.31 2552.4C2214.11 2549.95 2216.71 2548.55 2219.84 2548.33H2219.84Z" fill="white"/>
<path d="M2095.68 2510.36V2366.61C2095.68 2358.91 2104.01 2354.1 2110.67 2357.94L2244.7 2435.11C2255.55 2441.36 2262.24 2452.92 2262.24 2465.44V2609.57C2262.24 2617.27 2253.9 2622.08 2247.23 2618.22L2113.16 2540.66C2102.34 2534.4 2095.68 2522.86 2095.68 2510.36Z" fill="black" fill-opacity="0.41"/>
<path d="M2444.86 2510.36V2366.18C2444.86 2358.48 2436.52 2353.67 2429.85 2357.53L2294.87 2435.56C2284.05 2441.81 2277.38 2453.36 2277.38 2465.86V2610.03C2277.38 2617.73 2285.72 2622.55 2292.39 2618.69L2427.38 2540.66C2438.19 2534.4 2444.86 2522.85 2444.86 2510.36Z" fill="black" fill-opacity="0.41"/>
<path fill-rule="evenodd" clip-rule="evenodd" d="M1222.37 2986.28L527.265 3062.08L394.672 1846.24L1089.78 1770.44C1311 1746.31 1520.03 1998.93 1556.64 2334.67C1593.25 2670.42 1443.6 2962.15 1222.37 2986.28Z" fill="#A05942"/>
<path d="M527.265 3062.08L517.324 3063.17C517.922 3068.66 522.859 3072.62 528.349 3072.02L527.265 3062.08ZM394.672 1846.24L393.588 1836.3C388.097 1836.9 384.132 1841.83 384.731 1847.32L394.672 1846.24ZM528.349 3072.02L1223.45 2996.22L1221.28 2976.34L526.181 3052.14L528.349 3072.02ZM384.731 1847.32L517.324 3063.17L537.206 3061L404.613 1845.16L384.731 1847.32ZM1088.69 1760.5L393.588 1836.3L395.756 1856.18L1090.86 1780.38L1088.69 1760.5ZM1090.86 1780.38C1197.06 1768.8 1301.6 1823.51 1384.73 1923.98C1467.8 2024.38 1528.57 2169.55 1546.7 2335.76L1566.58 2333.59C1548.09 2164.05 1486.04 2015.04 1400.14 1911.23C1314.3 1807.49 1203.72 1747.95 1088.69 1760.5L1090.86 1780.38ZM1546.7 2335.76C1564.82 2501.96 1536.78 2656.83 1477.3 2772.77C1417.77 2888.8 1327.49 2964.76 1221.28 2976.34L1223.45 2996.22C1338.48 2983.68 1433.63 2901.7 1495.09 2781.9C1556.6 2662.01 1585.07 2503.13 1566.58 2333.59L1546.7 2335.76Z" fill="#373737"/>
<path d="M401.594 1844.66C507.7 1833.09 612.341 1888.85 695.703 1991.19C778.991 2093.44 840.049 2241.18 858.485 2410.23C876.921 2579.28 849.142 2736.71 789.85 2854.5C730.506 2972.4 640.344 3049.41 534.238 3060.98C428.132 3072.55 323.491 3016.79 240.129 2914.45C156.842 2812.2 95.783 2664.46 77.3474 2495.41C58.9118 2326.36 86.6902 2168.93 145.982 2051.14C205.326 1933.24 295.488 1856.24 401.594 1844.66Z" fill="#AB7462" stroke="#373737" stroke-width="20"/>
<path d="M994.419 3000.34C1362.62 2884.31 1241.87 1847.35 864.259 1806.81" stroke="#373737" stroke-width="20" stroke-linecap="round"/>
<path d="M750.943 2994.52L951.998 2972.59C1005.34 2952.02 1116.15 2884.43 1132.67 2778.58L883.616 2805.74C880.841 2839.68 861.151 2916.45 804.585 2951.97L948.043 2936.33C990.951 2909.16 1071.42 2848.4 1050.05 2822.67L936.993 2835C932.729 2853.63 921.271 2892.73 909.55 2900.05C897.829 2907.37 927.42 2900.62 943.681 2896.33C957.163 2889.64 984.215 2873.13 984.572 2860.57" stroke="#373737" stroke-width="20" stroke-linecap="round"/>
<path d="M606.974 1862.39L808.029 1840.47C864.548 1849.06 987.324 1891.18 1026.27 1990.97L777.217 2018.13C767.192 1985.59 731.419 1914.88 668.525 1892.38L811.983 1876.73C859.737 1894.01 951.415 1936 936.094 1965.73L823.034 1978.06C814.854 1960.78 795.238 1925.08 782.214 1920.45C769.19 1915.83 799.541 1916.04 816.345 1916.73C830.951 1920.35 860.927 1930.65 863.983 1942.84" stroke="#373737" stroke-width="20" stroke-linecap="round"/>
<path d="M904.775 2742.46L1138.36 2716.98C1156.46 2675.08 1193.3 2543.81 1162.63 2405.12L938.646 2429.55C945.064 2478.49 951.246 2596.54 924.636 2677.15L1093.16 2658.77C1107.87 2630.37 1131.99 2551.68 1110.79 2464.2L1004.67 2475.77C1011.66 2501.99 1019.39 2564.29 994.336 2603.71L1059.4 2596.62C1067.58 2582.6 1080.13 2546.22 1064.84 2512.92" stroke="#373737" stroke-width="20" stroke-linecap="round"/>
<path d="M825.27 2072.79L1058.86 2047.32C1085.56 2084.34 1149.83 2204.58 1149.78 2346.62L925.791 2371.05C921.507 2321.87 902.099 2205.26 858.74 2132.28L1027.26 2113.9C1047.75 2138.47 1088.27 2210.11 1086.42 2300.11L980.296 2311.68C981.477 2284.57 975.597 2222.07 942.631 2188.97L1007.69 2181.87C1018.71 2193.81 1038.8 2226.62 1031.05 2262.43" stroke="#373737" stroke-width="20" stroke-linecap="round"/>
<path d="M1204.66 2335.24L1444.04 2026.36" stroke="#373737" stroke-width="20" stroke-linecap="round"/>
<path d="M1173.25 2165.98L1265.91 2045.79" stroke="#373737" stroke-width="20" stroke-linecap="round"/>
<path d="M1134.14 2985.11L1276.73 2788.24" stroke="#373737" stroke-width="20" stroke-linecap="round"/>
<path d="M1017.13 1852.74L1072.25 1784.13" stroke="#373737" stroke-width="20" stroke-linecap="round"/>
<path d="M1113.31 1982.56L1232.58 1829.25" stroke="#373737" stroke-width="20" stroke-linecap="round"/>
<path d="M1315.94 2410.53L1508.8 2165" stroke="#373737" stroke-width="20" stroke-linecap="round"/>
<path d="M1471.82 2756.17L1489.76 2732.63" stroke="#373737" stroke-width="20" stroke-linecap="round"/>
<path d="M1376.86 2667.23L1549.34 2447.67" stroke="#373737" stroke-width="20" stroke-linecap="round"/>
<path d="M1218.62 2344.51L1428.21 2524.56" stroke="#373737" stroke-width="20" stroke-linecap="round"/>
<path d="M1211.96 2708.96L1399.77 2877.35" stroke="#373737" stroke-width="20" stroke-linecap="round"/>
<path d="M1184.6 1943.49L1363.9 2103.1" stroke="#373737" stroke-width="20" stroke-linecap="round"/>
<path d="M1250.97 1819.69L1395.75 1939.89" stroke="#373737" stroke-width="20" stroke-linecap="round"/>
<path d="M1233.99 2534.95L1471.82 2756.17" stroke="#373737" stroke-width="20" stroke-linecap="round"/>
<path d="M1415.36 2317.66L1548.19 2432.15" stroke="#373737" stroke-width="20" stroke-linecap="round"/>
<path d="M1206.71 2898.4L1273.17 2963.47" stroke="#373737" stroke-width="20" stroke-linecap="round"/>
<path d="M2162.62 1868.71C2171.9 1863.32 2183.37 1863.31 2192.67 1868.68L2315 1939.3C2324.28 1944.66 2330 1954.56 2330 1965.28V2101.15C2330 2111.81 2324.34 2121.67 2315.14 2127.05L2192.81 2198.56C2183.44 2204.04 2171.84 2204.02 2162.47 2198.53L2040.81 2127.06C2031.63 2121.67 2026 2111.83 2026 2101.19V1965.24C2026 1954.54 2031.69 1944.66 2040.95 1939.29L2162.62 1868.71Z" fill="#383838"/>
<path d="M2178.19 1878.4C2173.64 1878.4 2169.09 1879.42 2165.57 1881.46L2053.13 1946.5C2046.09 1950.57 2046.09 1957.02 2053.13 1961.09L2165.57 2026.13C2172.62 2030.21 2183.76 2030.21 2190.8 2026.13L2303.24 1961.09C2310.28 1957.02 2310.28 1950.57 2303.24 1946.5L2190.8 1881.46C2187.28 1879.42 2182.73 1878.4 2178.19 1878.4V1878.4ZM2179.56 1887.55C2185.43 1887.7 2191 1889.15 2195.16 1891.62C2199.5 1894.25 2201.92 1897.78 2201.89 1901.46C2201.86 1905.14 2199.39 1908.66 2195 1911.27C2190.62 1913.87 2184.68 1915.34 2178.48 1915.35C2172.28 1915.37 2166.32 1913.93 2161.9 1911.36C2158.54 1909.37 2156.28 1906.83 2155.41 1904.06C2154.54 1901.3 2155.09 1898.44 2157 1895.87C2158.91 1893.29 2162.09 1891.12 2166.11 1889.64C2170.13 1888.15 2174.82 1887.42 2179.56 1887.55L2179.56 1887.55ZM2222.57 1913.46C2227.19 1913.5 2231.69 1914.35 2235.5 1915.9C2239.32 1917.45 2242.28 1919.63 2244.02 1922.17C2245.75 1924.71 2246.19 1927.5 2245.27 1930.19C2244.35 1932.88 2242.12 1935.34 2238.85 1937.28C2234.44 1939.9 2228.46 1941.37 2222.22 1941.37C2215.99 1941.37 2210 1939.9 2205.59 1937.28C2201.18 1934.67 2198.7 1931.12 2198.7 1927.42C2198.7 1923.71 2201.18 1920.16 2205.59 1917.55C2207.82 1916.23 2210.46 1915.19 2213.38 1914.48C2216.3 1913.78 2219.42 1913.43 2222.57 1913.46V1913.46ZM2091.84 1939.21C2091.84 1939.21 2091.84 1939.21 2091.84 1939.21C2097.71 1939.36 2103.28 1940.82 2107.44 1943.28C2111.85 1945.9 2114.33 1949.45 2114.33 1953.15C2114.33 1956.85 2111.85 1960.4 2107.44 1963.02C2103.03 1965.64 2097.04 1967.11 2090.81 1967.11C2084.57 1967.11 2078.59 1965.64 2074.17 1963.02C2070.82 1961.03 2068.56 1958.49 2067.69 1955.73C2066.82 1952.96 2067.37 1950.1 2069.28 1947.53C2071.19 1944.96 2074.36 1942.79 2078.39 1941.3C2082.41 1939.82 2087.1 1939.09 2091.83 1939.21H2091.84ZM2266.95 1939.4C2266.95 1939.4 2266.95 1939.4 2266.95 1939.4C2272.83 1939.55 2278.39 1941.01 2282.55 1943.48C2286.93 1946.1 2289.38 1949.64 2289.37 1953.33C2289.35 1957.02 2286.88 1960.56 2282.48 1963.17C2278.08 1965.78 2272.12 1967.25 2265.9 1967.26C2259.68 1967.26 2253.71 1965.81 2249.29 1963.21C2245.94 1961.22 2243.68 1958.68 2242.81 1955.92C2241.93 1953.15 2242.49 1950.3 2244.4 1947.72C2246.31 1945.15 2249.48 1942.98 2253.5 1941.49C2257.53 1940.01 2262.22 1939.28 2266.95 1939.4ZM2135.17 1965.32C2139.79 1965.36 2144.29 1966.21 2148.11 1967.76C2151.92 1969.3 2154.88 1971.49 2156.62 1974.03C2158.36 1976.57 2158.79 1979.36 2157.88 1982.04C2156.96 1984.73 2154.73 1987.2 2151.46 1989.14C2149.28 1990.46 2146.69 1991.5 2143.82 1992.22C2140.96 1992.94 2137.89 1993.31 2134.78 1993.32C2131.68 1993.33 2128.6 1992.97 2125.72 1992.27C2122.85 1991.57 2120.24 1990.54 2118.04 1989.23C2115.85 1987.93 2114.11 1986.38 2112.92 1984.67C2111.74 1982.97 2111.14 1981.14 2111.15 1979.3C2111.17 1977.46 2111.8 1975.63 2113.01 1973.93C2114.22 1972.23 2115.98 1970.7 2118.2 1969.4C2120.42 1968.08 2123.07 1967.04 2125.99 1966.34C2128.9 1965.64 2132.02 1965.29 2135.17 1965.32V1965.32ZM2045.63 1973.41C2041.39 1973.3 2038.51 1976.6 2038.51 1982.45V2098.53C2038.51 2106.66 2044.09 2116.31 2051.13 2120.38L2159.28 2182.84C2166.33 2186.9 2171.9 2183.69 2171.9 2175.55V2059.47C2171.9 2051.34 2166.33 2041.69 2159.28 2037.62L2051.13 1975.17C2049.15 1974.02 2047.28 1973.45 2045.63 1973.41V1973.41ZM2311.18 1973.41C2309.53 1973.46 2307.66 1974.02 2305.68 1975.17L2197.53 2037.62C2190.48 2041.69 2184.91 2051.34 2184.91 2059.48V2175.56C2184.91 2183.69 2190.48 2186.91 2197.53 2182.84L2305.68 2120.38C2312.73 2116.32 2318.3 2106.67 2318.3 2098.53V1982.45C2318.3 1976.61 2315.42 1973.3 2311.18 1973.41V1973.41ZM2055.66 1989.55C2058.18 1989.38 2061.04 1990.17 2063.95 1991.85C2066.87 1993.52 2069.73 1996.02 2072.26 1999.1C2074.78 2002.18 2076.88 2005.72 2078.34 2009.36C2079.79 2013.01 2080.56 2016.63 2080.55 2019.87C2080.55 2022.29 2080.13 2024.44 2079.29 2026.19C2078.46 2027.95 2077.24 2029.27 2075.71 2030.1C2074.17 2030.92 2072.34 2031.22 2070.33 2030.99C2068.32 2030.75 2066.16 2029.99 2063.99 2028.73C2061.81 2027.47 2059.66 2025.75 2057.65 2023.67C2055.64 2021.58 2053.81 2019.17 2052.27 2016.57C2050.73 2013.97 2049.51 2011.23 2048.68 2008.52C2047.85 2005.8 2047.42 2003.16 2047.43 2000.74C2047.42 1997.52 2048.18 1994.78 2049.62 1992.82C2051.07 1990.85 2053.15 1989.73 2055.66 1989.55ZM2301.15 1989.55C2303.66 1989.73 2305.74 1990.85 2307.19 1992.82C2308.63 1994.78 2309.39 1997.52 2309.39 2000.74C2309.38 2005.62 2307.63 2011.31 2304.53 2016.55C2301.42 2021.79 2297.21 2026.15 2292.82 2028.69C2288.43 2031.22 2284.23 2031.71 2281.12 2030.06C2278.01 2028.41 2276.27 2024.74 2276.26 2019.87C2276.26 2016.63 2277.02 2013.01 2278.48 2009.36C2279.93 2005.72 2282.03 2002.18 2284.55 1999.1C2287.08 1996.02 2289.94 1993.52 2292.86 1991.85C2295.77 1990.17 2298.64 1989.38 2301.15 1989.55H2301.15ZM2179.56 1991.26C2185.43 1991.41 2191 1992.86 2195.16 1995.33C2199.5 1997.96 2201.92 2001.49 2201.89 2005.17C2201.86 2008.85 2199.39 2012.38 2195 2014.98C2190.62 2017.58 2184.68 2019.05 2178.48 2019.06C2172.28 2019.08 2166.32 2017.64 2161.89 2015.07C2158.54 2013.08 2156.28 2010.54 2155.41 2007.77C2154.54 2005.01 2155.09 2002.15 2157 1999.58C2158.91 1997 2162.08 1994.83 2166.11 1993.35C2170.13 1991.86 2174.82 1991.13 2179.55 1991.26L2179.56 1991.26ZM2138.1 2037.15C2140.62 2036.98 2143.48 2037.77 2146.39 2039.44C2149.31 2041.12 2152.17 2043.62 2154.7 2046.7C2157.22 2049.77 2159.32 2053.31 2160.78 2056.96C2162.23 2060.61 2163 2064.23 2162.99 2067.47C2162.99 2069.89 2162.57 2072.03 2161.73 2073.79C2160.9 2075.54 2159.68 2076.87 2158.15 2077.7C2156.61 2078.52 2154.78 2078.82 2152.77 2078.59C2150.76 2078.35 2148.6 2077.58 2146.43 2076.33C2144.25 2075.07 2142.1 2073.35 2140.09 2071.26C2138.07 2069.18 2136.25 2066.76 2134.71 2064.16C2133.17 2061.57 2131.95 2058.83 2131.12 2056.12C2130.29 2053.4 2129.86 2050.76 2129.87 2048.34C2129.86 2045.11 2130.62 2042.38 2132.06 2040.42C2133.51 2038.45 2135.59 2037.33 2138.1 2037.15V2037.15ZM2218.71 2037.15C2221.22 2037.33 2223.3 2038.45 2224.75 2040.41C2226.19 2042.38 2226.95 2045.11 2226.94 2048.34C2226.94 2053.22 2225.19 2058.91 2222.09 2064.14C2218.98 2069.38 2214.77 2073.75 2210.38 2076.28C2205.99 2078.82 2201.78 2079.31 2198.68 2077.66C2195.57 2076.01 2193.83 2072.34 2193.82 2067.47C2193.82 2064.23 2194.58 2060.61 2196.03 2056.96C2197.49 2053.31 2199.59 2049.77 2202.11 2046.7C2204.64 2043.62 2207.5 2041.12 2210.42 2039.44C2213.33 2037.77 2216.19 2036.98 2218.71 2037.15H2218.71ZM2096.88 2058.25C2099.4 2058.08 2102.26 2058.87 2105.17 2060.54C2108.09 2062.22 2110.95 2064.72 2113.48 2067.8C2116 2070.87 2118.1 2074.41 2119.56 2078.06C2121.01 2081.71 2121.78 2085.33 2121.77 2088.57C2121.76 2093.44 2120.02 2097.11 2116.91 2098.76C2113.81 2100.41 2109.6 2099.92 2105.21 2097.38C2100.82 2094.85 2096.61 2090.48 2093.5 2085.25C2090.4 2080.01 2088.65 2074.32 2088.65 2069.44C2088.64 2066.21 2089.4 2063.48 2090.84 2061.52C2092.29 2059.55 2094.37 2058.43 2096.88 2058.25V2058.25ZM2055.66 2079.88C2058.18 2079.7 2061.04 2080.49 2063.95 2082.17C2066.87 2083.85 2069.73 2086.35 2072.26 2089.42C2074.79 2092.5 2076.88 2096.04 2078.34 2099.69C2079.79 2103.33 2080.56 2106.96 2080.55 2110.19C2080.55 2112.61 2080.13 2114.76 2079.3 2116.52C2078.46 2118.27 2077.24 2119.6 2075.71 2120.42C2074.17 2121.25 2072.34 2121.55 2070.33 2121.31C2068.32 2121.08 2066.17 2120.31 2063.99 2119.05C2061.81 2117.8 2059.66 2116.08 2057.65 2113.99C2055.64 2111.9 2053.81 2109.49 2052.27 2106.89C2050.73 2104.29 2049.51 2101.56 2048.68 2098.84C2047.85 2096.13 2047.42 2093.49 2047.43 2091.07C2047.42 2087.84 2048.18 2085.11 2049.62 2083.14C2051.07 2081.18 2053.15 2080.05 2055.66 2079.88V2079.88ZM2301.15 2079.88C2303.66 2080.05 2305.75 2081.18 2307.19 2083.14C2308.63 2085.11 2309.39 2087.84 2309.39 2091.07C2309.38 2095.95 2307.63 2101.63 2304.53 2106.87C2301.42 2112.11 2297.21 2116.48 2292.82 2119.01C2288.43 2121.54 2284.23 2122.04 2281.12 2120.39C2278.01 2118.73 2276.27 2115.07 2276.26 2110.19C2276.26 2106.96 2277.02 2103.33 2278.47 2099.69C2279.93 2096.04 2282.03 2092.5 2284.55 2089.42C2287.08 2086.35 2289.94 2083.85 2292.86 2082.17C2295.77 2080.49 2298.64 2079.7 2301.15 2079.88ZM2138.1 2127.47C2140.62 2127.3 2143.48 2128.09 2146.4 2129.77C2149.31 2131.44 2152.18 2133.95 2154.7 2137.02C2157.23 2140.1 2159.32 2143.64 2160.78 2147.28C2162.23 2150.93 2163 2154.55 2162.99 2157.79C2162.99 2160.21 2162.57 2162.36 2161.74 2164.11C2160.91 2165.87 2159.69 2167.2 2158.15 2168.02C2156.61 2168.84 2154.78 2169.14 2152.77 2168.91C2150.76 2168.67 2148.61 2167.91 2146.43 2166.65C2144.25 2165.39 2142.1 2163.67 2140.09 2161.59C2138.08 2159.5 2136.25 2157.09 2134.71 2154.49C2133.17 2151.89 2131.95 2149.15 2131.12 2146.44C2130.29 2143.72 2129.87 2141.08 2129.87 2138.67C2129.86 2135.44 2130.62 2132.7 2132.06 2130.74C2133.51 2128.77 2135.59 2127.65 2138.1 2127.47V2127.47ZM2218.71 2127.47C2221.22 2127.65 2223.3 2128.77 2224.75 2130.74C2226.19 2132.7 2226.95 2135.44 2226.94 2138.67C2226.94 2143.55 2225.19 2149.23 2222.09 2154.47C2218.98 2159.71 2214.77 2164.07 2210.38 2166.61C2205.99 2169.14 2201.78 2169.64 2198.68 2167.98C2195.57 2166.33 2193.83 2162.66 2193.82 2157.79C2193.82 2154.55 2194.58 2150.93 2196.03 2147.28C2197.49 2143.64 2199.59 2140.1 2202.11 2137.02C2204.64 2133.95 2207.5 2131.44 2210.42 2129.77C2213.33 2128.09 2216.19 2127.3 2218.71 2127.47V2127.47Z" fill="white"/>
<path d="M2038.51 2093.02V1985.13C2038.51 1977.44 2046.84 1972.63 2053.5 1976.47L2154.58 2034.66C2165.42 2040.91 2172.11 2052.47 2172.11 2064.99V2173.16C2172.11 2180.86 2163.77 2185.67 2157.1 2181.82L2055.99 2123.32C2045.17 2117.06 2038.51 2105.52 2038.51 2093.02Z" fill="black" fill-opacity="0.41"/>
<path d="M2318.59 2093V1984.78C2318.59 1977.08 2310.26 1972.27 2303.59 1976.12L2202.13 2034.65C2191.3 2040.9 2184.62 2052.46 2184.62 2064.97V2173.18C2184.62 2180.88 2192.96 2185.69 2199.62 2181.85L2301.08 2123.31C2311.92 2117.06 2318.59 2105.5 2318.59 2093Z" fill="black" fill-opacity="0.41"/>
</svg>
